<?xml version="1.0" standalone="no"?>
<!DOCTYPE svg PUBLIC "-//W3C//DTD SVG 1.1//EN" "http://www.w3.org/Graphics/SVG/1.1/DTD/svg11.dtd" >
<svg xmlns="http://www.w3.org/2000/svg" xmlns:xlink="http://www.w3.org/1999/xlink" version="1.1">
<metadata>Created by EOS Design System</metadata>
<defs>
<font id="eos-icons-extended" horiz-adv-x="427" >
  <font-face 
    font-family="eos-icons-extended"
    font-weight="400"
    font-stretch="normal"
    units-per-em="512"
    panose-1="2 0 5 3 0 0 0 0 0 0"
    ascent="448"
    descent="-64"
    bbox="-0.595506 -64 512 448.379"
    underline-thickness="25"
    underline-position="-50"
    unicode-range="U+0030-F504"
  />
<missing-glyph horiz-adv-x="187" 
d="M17 0v341h136v-341h-136zM34 17h102v307h-102v-307z" />
    <glyph glyph-name="action_chains" unicode="action_chains" horiz-adv-x="470" 
d="M342 21.5q0 26.5 18.5 45t45 18.5t45.5 -18.5t19 -45t-19 -45.5t-45.5 -19t-45 19t-18.5 45.5zM363 384q44 0 75 -31.5t31 -75.5t-31 -75t-75 -31h-68q-6 -18 -24 -30t-36 -12t-36 12t-24 30h-68q-27 0 -45.5 -19t-18.5 -45.5t18.5 -45t45.5 -18.5h128v64l85 -86l-85 -85
v64h-128q-44 0 -75.5 31.5t-31.5 75.5t31.5 75t75.5 31h68q6 18 23.5 30t36 12t36.5 -12t24 -30h68q26 0 45 19t19 45.5t-19 45t-45 18.5h-239q-6 -17 -23.5 -29.5t-36.5 -12.5q-26 0 -45 18.5t-19 45t19 45.5t45 19q12 0 24.5 -6t22 -15.5t13.5 -21.5h239z" />
    <glyph glyph-name="activate_subscriptions" unicode="activate_subscriptions" 
d="M43 277v43h341v-43h-341zM85 363v42h256v-42h-256zM384 235q18 0 30.5 -12.5t12.5 -30.5v-171q0 -17 -12.5 -29.5t-30.5 -12.5h-341q-18 0 -30.5 12.5t-12.5 29.5v171q0 12 5.5 21.5t15.5 15.5t22 6h341zM277 85v43h-42v43h-43v-43h-43v-43h43v-42h43v42h42z" />
    <glyph glyph-name="admin" unicode="admin" horiz-adv-x="384" 
d="M192 427l192 -86v-128q0 -89 -55 -162.5t-137 -93.5q-82 20 -137 93.5t-55 162.5v128zM192 343q-26 0 -45 -18.5t-19 -45t19 -45.5t45 -19t45 19t19 45.5t-19 45t-45 18.5zM192 175q-23 0 -52 -7t-52.5 -23t-23.5 -36q19 -28 56.5 -48t71.5 -20t71.5 20t56.5 48
q0 15 -14 28t-34.5 21t-41.5 12.5t-38 4.5z" />
    <glyph glyph-name="api" unicode="api" 
d="M240 203v21h43v-21h-43zM384 363q18 0 30.5 -12.5t12.5 -30.5v-256q0 -18 -12.5 -30.5t-30.5 -12.5h-341q-18 0 -30.5 12.5t-12.5 30.5v256q0 18 12.5 30.5t30.5 12.5h341zM137 128h34l-47 128h-34l-47 -128h34l10 26h41zM315 203v21v1q0 13 -9 22t-22 9h-1h-75v-128h32
v43h43h1q13 0 22 9t9 22v1zM384 128v128h-32v-128h32zM95 176l12 33l12 -33h-24z" />
    <glyph glyph-name="application_incomplete" unicode="application_incomplete" horiz-adv-x="426" 
d="M420 213q6 -10 6 -22q0 -11 -5 -20l-86 -150q-5 -8 -15.5 -14.5t-21.5 -6.5h-170q-7 0 -14.5 3t-13.5 8t-9 10l-85 150q-6 10 -6 21t6 21l85 150q5 8 15.5 14.5t21.5 6.5h170q10 0 21 -6.5t16 -14.5zM213 178v1q0 35 -25 60t-60 25q-14 0 -31 -6.5t-27 -15.5l58 99h170
l3 -5q2 -2 3 -4l74 -130l4 -10l-55 -99q-14 -5 -29 -6q-34 0 -59 24.5t-26 59.5v1v6z" />
    <glyph glyph-name="application_instance" unicode="application_instance" horiz-adv-x="426" 
d="M420 213q6 -10 6 -22q0 -11 -6 -20l-85 -150q-5 -8 -16 -14.5t-21 -6.5h-171q-10 0 -20.5 6.5t-15.5 14.5l-85 150q-6 10 -6 21t6 21l85 150q5 8 15.5 14.5t20.5 6.5h171q10 0 20.5 -6.5t15.5 -14.5zM212.5 149q17.5 0 30 12.5t12.5 30.5t-12.5 30.5t-30 12.5t-30 -12.5
t-12.5 -30.5t12.5 -30.5t30 -12.5z" />
    <glyph glyph-name="application" unicode="application" horiz-adv-x="426" 
d="M298 384q7 0 14.5 -3t13.5 -8t9 -10l86 -150q5 -10 5 -21t-5 -21l-86 -150q-5 -8 -15.5 -14.5t-21.5 -6.5h-170q-7 0 -14.5 3t-13.5 8t-9 10l-85 150q-6 10 -6 21t6 21l85 150q5 8 15.5 14.5t21.5 6.5h170z" />
    <glyph glyph-name="autoinstallation" unicode="autoinstallation" 
d="M179 96l67 -66q-26 -8 -54 -8q-79 0 -135.5 56t-56.5 136q0 52 25.5 96.5t70 70t96.5 25.5q75 0 131.5 -53.5t60.5 -128.5h-95v-128h-110zM139 213q0 -22 15.5 -37.5t37.5 -15.5t37.5 15.5t15.5 37.5t-15.5 38t-37.5 16t-37.5 -16t-15.5 -38zM427 64l-85 -85l-85 85h64
v128h42v-128h64z" />
    <glyph glyph-name="background_tasks" unicode="background_tasks" horiz-adv-x="512" 
d="M128 352v32h192v-32h-192zM64 288v32h32v-32h-32zM64 352v32h32v-32h-32zM64 224v32h32v-32h-32zM96 192v-32h-53q-18 0 -30.5 12.5t-12.5 30.5v202q0 18 12.5 30.5t30.5 12.5h298q18 0 30.5 -12.5t12.5 -30.5v-85h-32v96h-320v-224h64zM469 288q18 0 30.5 -12.5
t12.5 -30.5v-202q0 -18 -12.5 -30.5t-30.5 -12.5h-117v-32h32v-32h-128v31h33v33h-118q-18 0 -30.5 12.5t-12.5 30.5v202q0 18 12.5 30.5t30.5 12.5h298zM480 32v224h-320v-224h320z" />
    <glyph glyph-name="bootstrapping" unicode="bootstrapping" horiz-adv-x="398" 
d="M7 -64v43h384v-43h-384zM199 192q52 0 91 -10.5t59.5 -27.5t32.5 -37.5t14 -41t1.5 -37.5t-3.5 -27l-3 -11h-384q-1 4 -3 11t-3.5 27t1.5 38t14.5 40t32 38t59.5 27t91 11zM7 448h384l-21 -278q-40 54 -171 54q-130 0 -171 -53zM92 384v-43h214v43h-214zM327 256v43h-256
v-43h256z" />
    <glyph glyph-name="cleanup" unicode="cleanup" 
d="M384 128v-43h-341v43h106q0 18 12.5 30.5t30.5 12.5l88 234l37 -13l-82 -221q17 0 29.5 -12.5t12.5 -30.5h107zM384 64l43 -85h-43h-341h-43l43 85h341z" />
    <glyph glyph-name="cloud_foundry_space" unicode="cloud_foundry_space" 
d="M213.5 405q88.5 0 151 -62.5t62.5 -150.5t-62.5 -150.5t-151 -62.5t-151 62.5t-62.5 150.5t62.5 150.5t151 62.5zM213.5 21q70.5 0 120.5 50t50 121t-50 121t-120.5 50t-120.5 -50t-50 -121t50 -121t120.5 -50zM182 288q0 13 9 22.5t22 9.5t22.5 -9.5t9.5 -22.5
q0 -8 -4 -15.5t-11.5 -12t-16 -4.5t-16 4.5t-11.5 12t-4 15.5zM182 96q0 13 9 22.5t22 9.5t22.5 -9.5t9.5 -22.5q0 -8 -4 -15.5t-11.5 -12t-16 -4.5t-16 4.5t-11.5 12t-4 15.5zM278 192q0 13 9 22.5t22 9.5t22.5 -9.5t9.5 -22.5t-9.5 -22.5t-22.5 -9.5t-22 9.5t-9 22.5z
M86 192q0 13 9 22.5t22 9.5t22.5 -9.5t9.5 -22.5t-9.5 -22.5t-22.5 -9.5t-22 9.5t-9 22.5zM192 192q0 9 6 15t15 6t15.5 -6t6.5 -15t-6.5 -15t-15.5 -6t-15 6t-6 15z" />
    <glyph glyph-name="collocation" unicode="collocation" 
d="M384 405q18 0 30.5 -12.5t12.5 -29.5v-342q0 -17 -12.5 -29.5t-30.5 -12.5h-341q-18 0 -30.5 12.5t-12.5 29.5v342q0 17 12.5 29.5t30.5 12.5h341zM384 21v342h-341v-342h341zM118 64h1q-22 0 -38 15.5t-16 37.5t16 38t38 16l50 87q-9 14 -9 30q0 22 15.5 37.5t38 15.5
t38 -15.5t15.5 -37.5q0 -16 -9 -30l51 -87h1q22 0 38 -16t16 -38t-16 -37.5t-38 -15.5q-11 0 -22.5 5.5t-19.5 15.5t-10 22h-87q-4 -18 -19.5 -30.5t-33.5 -12.5zM185 243l-44 -78q10 -4 18.5 -15t11.5 -22h86q3 11 11.5 22t18.5 15l-45 78q-13 -8 -28.5 -8t-28.5 8z" />
    <glyph glyph-name="configuration_file" unicode="configuration_file" horiz-adv-x="341" 
d="M139 146q12 0 20.5 -8t8.5 -20t-8.5 -20.5t-20.5 -8.5t-20.5 8.5t-8.5 20t8.5 20t20.5 8.5zM213 405l128 -128v-256q0 -17 -12.5 -29.5t-29.5 -12.5h-256q-18 0 -30.5 12.5t-12.5 29.5v342q0 17 12.5 29.5t30.5 12.5h170zM232 85q1 2 1 4t-2 3l-21 16v9v5v5l21 16
q2 1 2 2.5t-2 3.5l-19 33q-1 2 -4 2h-1l-24 -9q-8 5 -17 9l-3 25q-1 4 -5 4h-38q-4 0 -5 -3l-4 -25q-9 -4 -16 -10l-24 10h-2q-3 0 -4 -2l-19 -34q-1 -1 -1 -3t2 -4l21 -16v-9v-9l-21 -16q-2 -2 -2 -4t1 -3l19 -32q1 -3 4 -3q1 0 2 1l24 9q7 -6 16 -9l4 -25q0 -4 5 -4h39
q4 0 5 4l3 25q9 4 16 9l24 -9q1 -1 2 -1q3 0 4 3zM192 256h117l-117 117v-117z" />
    <glyph glyph-name="constraint" unicode="constraint" horiz-adv-x="426" 
d="M426 342l-426 -2v43l426 1v-42zM426 256l-426 -1v43l426 1v-43zM234 171l-234 -1v42l234 2v-43zM234 86l-234 -2v43l234 1v-42zM234 0l-234 -1v43l234 1v-43zM405 128q8 -1 14.5 -7t6.5 -14v-86q0 -8 -6.5 -14t-14.5 -7h-107q-8 1 -14.5 7t-6.5 14v86q0 8 6.5 14t14.5 7
v32q0 14 7.5 26.5t19.5 19.5t27 7q22 0 37.5 -15.5t15.5 -37.5v-32zM384 128v32q0 13 -9.5 22.5t-23 9.5t-22.5 -9.5t-9 -22.5v-32h64z" />
    <glyph glyph-name="content_lifecycle_management" unicode="content_lifecycle_management" 
d="M85 256v43h171v-43h-171zM85 171v42h256v-42h-256zM85 85v43h64v-43h-64zM256 384l-64 -64v43h-149v-342h85v-42h-85q-18 0 -30.5 12.5t-12.5 29.5v342q0 17 12.5 29.5t30.5 12.5h149v43zM171 0l64 64v-43h149v342h-85v42h85q18 0 30.5 -12.5t12.5 -29.5v-342
q0 -17 -12.5 -29.5t-30.5 -12.5h-149v-43z" />
    <glyph glyph-name="counting" unicode="counting" horiz-adv-x="512" 
d="M43 -21v426h42v-426h-42zM43 363h426v-43h-426v43zM427 -21v426h42v-426h-42zM128 341q0 18 12.5 30.5t30 12.5t30 -12.5t12.5 -30t-12.5 -30t-29.5 -12.5q-9 0 -17 3t-13.5 9t-9 14t-3.5 16zM43 235h426v-43h-426v43zM171 213.5q0 17.5 12.5 30t30 12.5t30 -12.5
t12.5 -30t-12.5 -30t-30 -12.5t-30 12.5t-12.5 30zM299 213.5q0 17.5 12.5 30t30 12.5t30 -12.5t12.5 -30t-12.5 -30t-30 -12.5t-30 12.5t-12.5 30zM43 107h426v-43h-426v43zM0 0h512v-43h-512v43zM128 85q0 18 12.5 30.5t30 12.5t30 -12.5t12.5 -30t-12.5 -30t-29.5 -12.5
q-7 0 -13.5 2t-12 6t-9.5 9t-6 11.5t-2 13.5z" />
    <glyph glyph-name="critical_bug" unicode="critical_bug" horiz-adv-x="341" 
d="M341 277v-42h-44q2 -11 2 -22v-21h42v-43h-42v-21q0 -11 -2 -21h44v-43h-59q-10 -17 -28.5 -32t-40.5 -23.5t-42 -8.5t-42 8.5t-40.5 23.5t-28.5 32h-60v43h45q-2 10 -2 21v21h-43v43h43v21q0 11 2 22h-45v42h60q15 26 39 43l-35 34l30 30l47 -46q14 3 30 3v0q15 0 30 -3
l46 46l30 -30l-34 -34q24 -17 39 -43h59zM192 64v43h-43v-43h43zM192 149v128h-43v-128h43z" />
    <glyph glyph-name="csv_file" unicode="csv_file" horiz-adv-x="448" 
d="M299 20l42 1v-42h-298q-18 0 -30.5 12.5t-12.5 29.5v342q0 17 12.5 29.5t30.5 12.5h170l43 -42l43 -43l42 -43v-42h-42v21h-107v107h-149v-343h256zM411 64h-32l-37 128h32l21 -73l21 73h32zM171 192q8 0 14.5 -6.5t6.5 -14.5v-22h-32v11h-42v-64h42v11h32v-22
q0 -8 -6.5 -14.5t-14.5 -6.5h-64q-9 0 -15.5 6.5t-6.5 14.5v86q0 8 6.5 14.5t15.5 6.5h64zM320 160h-75v-16h54q8 0 14.5 -6.5t6.5 -15.5v-37q0 -8 -6.5 -14.5t-14.5 -6.5h-86v32h75v16h-53q-9 0 -15.5 6t-6.5 15v38q0 8 6.5 14.5t15.5 6.5h85v-32z" />
    <glyph glyph-name="deploy" unicode="deploy" horiz-adv-x="512" 
d="M512 21v-42h-512v42h85v22q-17 0 -29.5 12.5t-12.5 29.5v214q0 17 12.5 29.5t29.5 12.5h43v-42h-43v-214h342v214h-43v42h43q17 0 29.5 -12.5t12.5 -29.5v-214q0 -17 -12.5 -29.5t-29.5 -12.5v-22h85zM277 107h-42v42h-43l64 64l64 -64h-43v-42zM171 320q0 35 25 60
t60 25t60 -25t25 -60t-25 -60t-60 -25t-60 25t-25 60zM222 320h51q9 0 9 -9v-25h8q9 0 14 -8q16 18 16 42q0 17 -11.5 34t-26.5 24q-1 -6 -6 -11t-11 -5h-18v-17q0 -8 -8 -8h-17v-17zM192 320v-1q0 -23 16.5 -41.5t38.5 -21.5v12q-7 0 -12 5t-5 12v9l-37 37q-1 -5 -1 -11z
" />
    <glyph glyph-name="endpoints_connected" unicode="endpoints_connected" horiz-adv-x="384" 
d="M384 170h-256v-106h21v-85h-85v85h21v106h-85v43h256v107h-21v85h85v-85h-21v-107h85v-43z" />
    <glyph glyph-name="endpoints_disconnected" unicode="endpoints_disconnected" horiz-adv-x="397" 
d="M0 343l27 27l357 -357l-27 -27l-185 184h-31v-106h21v-85h-85v85h21v106h-85v43h117zM312 213h85v-43h-116l-42 43h30v107h-21v85h85v-85h-21v-107z" />
    <glyph glyph-name="endpoints" unicode="endpoints" horiz-adv-x="384" 
d="M0 171v43h43v-43h-43zM85 85v43h42v-43h-42zM85 171v43h42v-43h-42zM170 171v43h43v-43h-43zM256 171v43h42v-43h-42zM341 171v43h43v-43h-43zM256 256v42h42v-42h-42zM63 -21v85h86v-85h-86zM234 320v85h86v-85h-86z" />
    <glyph glyph-name="enhancement" unicode="enhancement" horiz-adv-x="426" 
d="M0 -22v172h85v-172h-85zM149 -22v256h86v-256h-86zM426 320h-42v-342h-86v342h-42l85 85z" />
    <glyph glyph-name="file_system" unicode="file_system" horiz-adv-x="384" 
d="M235 171q-6 0 -11 2.5t-8 7.5t-3 11v21h-106v-149h106v21q0 9 6.5 15.5t15.5 6.5h42l22 -22h64q8 0 14.5 -6t6.5 -15v-64q0 -9 -6.5 -15t-14.5 -6h-128q-9 0 -15.5 6t-6.5 15v21h-149v278h-43q-8 0 -14.5 6t-6.5 15v85q0 9 6.5 15.5t14.5 6.5h43l21 -22h64q9 0 15.5 -6
t6.5 -15v-64q0 -9 -6.5 -15t-15.5 -6h-42v-43h106v21q0 9 6.5 15.5t15.5 6.5h42l22 -22h64q8 0 14.5 -6t6.5 -15v-64q0 -9 -6.5 -15t-14.5 -6h-128z" />
    <glyph glyph-name="inbound" unicode="inbound" 
d="M384 405q18 0 30.5 -12.5t12.5 -29.5v-214h-43v171l-171 -107l-170 107v-213h170v-43h-170q-18 0 -30.5 12.5t-12.5 30.5v256q0 17 12.5 29.5t30.5 12.5h341zM213 256l171 107h-341zM341 171v-64h86v-43h-86v-64l-85 85z" />
    <glyph glyph-name="miscellaneous" unicode="miscellaneous" horiz-adv-x="384" 
d="M320 171l21 -168v-3q0 -9 -6 -15t-15 -6h-256q-9 0 -15.5 6t-6.5 15v2l22 169h256zM0 192v42h384v-42h-384zM250 324q16 -10 30 -30t18 -38h-42q0 9 -6.5 15t-15 6t-15 -6t-6.5 -15h-43q0 9 -6 15t-15 6t-15 -6t-6 -15h-43q4 18 18.5 37.5t30.5 29.5q-6 20 -6 40v3
q0 25 6 43t15 18q6 0 11 -8.5t7.5 -22.5t2.5 -30q0 -14 -2 -28q12 3 24 3t24 -3q-3 13 -3 27v1q0 25 6.5 43t15 18t15 -18t6.5 -42v-3q0 -21 -6 -40z" />
    <glyph glyph-name="modified_date" unicode="modified_date" 
d="M384 384q12 0 21.5 -5.5t15.5 -15.5t6 -22v-341q0 -18 -12.5 -30.5t-30.5 -12.5h-341q-18 0 -30.5 12.5t-12.5 30.5v341q0 12 5.5 22t15.5 15.5t22 5.5h21v43h43v-43h213v43h43v-43h21zM118 0l201 201l-76 75l-200 -201v-75h75zM378 260q6 6 6 14.5t-6 13.5l-47 47
q-6 6 -14 6t-14 -6l-40 -39l76 -75z" />
    <glyph glyph-name="molecules" unicode="molecules" horiz-adv-x="464" 
d="M411 246h-1q22 0 38 -16t16 -38t-16 -37.5t-38 -15.5q-5 0 -11 1l-39 -67q15 -15 15 -36q0 -22 -15.5 -37.5t-37.5 -15.5q-16 0 -31 11t-20 26h-77q-5 -15 -20 -26.5t-31 -11.5q-22 0 -38 15.5t-16 37.5t15 37l-39 67q-6 -1 -12 -1q-22 0 -37.5 15.5t-15.5 37.5t15.5 38
t37.5 16q6 0 12 -2l39 67q-14 15 -15 35v1q0 22 16 37.5t38 15.5q10 0 20.5 -5t18.5 -13.5t11 -18.5h78q3 7 8 13.5t12 11t15 7.5t15 3q21 0 36.5 -15t16.5 -36q0 -21 -14 -36l39 -67q6 2 12 2zM333 89l39 67q-14 16 -14 36.5t14 35.5l-39 67q-5 -1 -11 -1q-17 0 -31.5 11
t-19.5 26h-77q-5 -15 -20 -26t-31 -11q-6 0 -12 1l-38 -67q14 -15 14 -35.5t-14 -36.5l39 -67q5 1 11 1q16 0 30.5 -10.5t19.5 -26.5h78q3 10 11 18.5t18.5 13.5t21.5 5q6 0 11 -1z" />
    <glyph glyph-name="move" unicode="move" 
d="M427 192l-85 -86v64h-107v-106h64l-85 -86l-86 86h64v106h-107l1 -64l-86 86l85 85v-64h107v107h-64l86 85l85 -85h-64v-107h107v64z" />
    <glyph glyph-name="multistate" unicode="multistate" horiz-adv-x="469" 
d="M0 362.5q0 26.5 18.5 45.5t45.5 19q17 0 32 -8.5t23.5 -23.5t8.5 -32q0 -27 -18.5 -45.5t-45.5 -18.5t-45.5 18.5t-18.5 45zM64 128q-26 0 -45 19t-19 45t19 45t45 19t45 -19t19 -45t-19 -45t-45 -19zM64 235q-18 0 -30.5 -12.5t-12.5 -30.5t12.5 -30.5t30.5 -12.5
t30.5 12.5t12.5 30.5t-12.5 30.5t-30.5 12.5zM234.5 -43q-26.5 0 -45 19t-18.5 45.5t18.5 45t45 18.5t45.5 -18.5t19 -45t-19 -45.5t-45.5 -19zM234.5 64q-17.5 0 -30 -12.5t-12.5 -30t12.5 -30t30 -12.5t30 12.5t12.5 30t-12.5 30t-30 12.5zM405.5 299q-26.5 0 -45.5 18.5
t-19 45t19 45.5t45.5 19t45 -19t18.5 -45.5t-18.5 -45t-45 -18.5zM405.5 405q-17.5 0 -30 -12.5t-12.5 -30t12.5 -30t29.5 -12.5q12 0 22 5.5t15.5 15.5t5.5 22q0 17 -12.5 29.5t-30 12.5zM0 21q0 18 8.5 32.5t23.5 23t32 8.5q27 0 45.5 -18.5t18.5 -45t-18.5 -45.5
t-45.5 -19t-45.5 19t-18.5 45zM171 362.5q0 26.5 18.5 45.5t45.5 19q17 0 32 -8.5t23.5 -23.5t8.5 -32q0 -27 -19 -45.5t-45.5 -18.5t-45 18.5t-18.5 45zM171 192q0 27 18.5 45.5t45 18.5t45.5 -18.5t19 -45.5t-19 -45.5t-45.5 -18.5t-45 18.5t-18.5 45.5zM341 192
q0 27 19 45.5t45.5 18.5t45 -18.5t18.5 -45.5q0 -13 -5 -25t-13.5 -20.5t-20.5 -13.5t-25 -5q-26 0 -45 18.5t-19 45.5zM341 21.5q0 26.5 19 45t45.5 18.5t45 -18.5t18.5 -45t-18.5 -45.5t-45 -19t-45.5 19t-19 45.5z" />
    <glyph glyph-name="network_file_system" unicode="network_file_system" 
d="M299 85v-21h128v-43h-128v-21h-171v21h-128v43h128v21h64v86h43v-86h64zM277 171h-192q-8 0 -14.5 6t-6.5 15v171q0 8 6.5 14.5t14.5 6.5h107l21 -21h128q9 0 15.5 -6.5t6.5 -15.5v-149q0 -9 -6.5 -15t-15.5 -6h-64z" />
    <glyph glyph-name="organisms" unicode="organisms" horiz-adv-x="452" 
d="M420 224v1q13 0 22.5 -9.5t9.5 -23t-9.5 -22.5t-22.5 -9q-1 -1 -2.5 -1t-2.5 1l-26 -45q7 -8 7 -20q0 -13 -9 -22.5t-23 -9.5q-9 0 -17.5 6.5t-11.5 14.5h-51q-3 -8 -12 -14.5t-18 -6.5h-6l-25 -43q7 -9 7 -20q0 -13 -9.5 -22.5t-22.5 -9.5q-9 0 -17.5 6t-12.5 14h-51
q-3 -8 -12 -14.5t-18 -6.5q-13 0 -22.5 9.5t-9.5 22.5q0 12 8 21l-25 43h-6q-13 0 -22.5 9.5t-9.5 22.5t9.5 22.5t22.5 9.5h2.5h3.5l25 43q-8 9 -8 21t8 21l-25 43h-3.5h-2.5q-13 0 -22.5 9.5t-9.5 22.5t9.5 22.5t22.5 9.5h6l25 43q-8 9 -8 21q0 13 9.5 22.5t22.5 9.5v0
q9 0 18 -6t12 -15h51q4 8 12.5 14t17.5 6q13 0 22.5 -9.5t9.5 -22.5q0 -11 -7 -20l25 -43h5q10 0 18.5 -6.5t11.5 -14.5h51q3 8 12 14.5t18 6.5q14 0 23 -9.5t9 -22.5q0 -11 -7 -20l26 -44h2.5h2.5zM364 128h3.5h3.5l25 43q-8 9 -8 21t8 21l-25 43h-3.5h-3.5q-6 0 -12 3
t-11 8t-7 10h-51q-2 -5 -6.5 -10t-11 -8t-12.5 -3h-5l-25 -44q7 -9 7 -20.5t-7 -20.5l25 -43h6q6 0 12 -3t11 -8t7 -10h51q3 8 11.5 14.5t17.5 6.5zM198 32l6 -1l26 45q-8 8 -8 20v1q0 12 8 21l-26 44h-2.5h-3.5q-9 0 -18 6.5t-12 14.5h-51q-3 -8 -12 -14.5t-18 -6.5h-2.5
h-2.5l-26 -44q8 -9 8 -21v-1q0 -12 -8 -21l26 -43h5q9 0 18 -6.5t12 -15.5h51q3 9 12 15.5t18 6.5zM56 309q8 -9 8 -20v-1q0 -12 -8 -20l26 -43h2.5h2.5q9 0 18 -6.5t12 -15.5h51q2 6 7 11t11 8t12 3h3.5h2.5l25 42q-8 9 -8 21.5t8 21.5l-25 43h-6q-6 0 -12 2.5t-11 7.5
t-7 11h-51q-3 -9 -12 -15t-18 -6h-5z" />
    <glyph glyph-name="organization" unicode="organization" horiz-adv-x="428" 
d="M385 214h11v-86h-43v43h-117v-43h-43v43h-118v-43h-43v86h12h31h118v42h43v-42h117h32zM161 352q0 22 15.5 37.5t37.5 15.5t38 -15.5t16 -37.5t-16 -38t-38 -16t-37.5 16t-15.5 38zM0 32q0 22 15.5 38t37.5 16t38 -16t16 -38t-16 -37.5t-38 -15.5t-37.5 15.5t-15.5 37.5z
M161 32q0 22 15.5 38t37.5 16t38 -16t16 -38t-16 -37.5t-38 -15.5t-37.5 15.5t-15.5 37.5zM321 32q0 22 15.5 38t37.5 16t38 -16t16 -38t-16 -37.5t-38 -15.5t-37.5 15.5t-15.5 37.5z" />
    <glyph glyph-name="outbound" unicode="outbound" 
d="M384 405q18 0 30.5 -12.5t12.5 -29.5v-192h-43v149l-171 -107l-170 107v-213h170v-43h-170q-18 0 -30.5 12.5t-12.5 30.5v256q0 17 12.5 29.5t30.5 12.5h341zM213 256l171 107h-341zM427 85l-86 -85v64h-85v43h85v64z" />
    <glyph glyph-name="package_upgrade" unicode="package_upgrade" 
d="M336 144l-144 -144h-107q-17 0 -29.5 12.5t-12.5 30.5v234h-43v43h427v-43h-43v-181zM85 107v-43h107v43h-107zM427 10l-30 -30l-61 60l-60 -60l-30 30l90 90l31 -30z" />
    <glyph glyph-name="package" unicode="package" 
d="M0 320h427v-43h-43v-234q0 -12 -5.5 -22t-15.5 -15.5t-22 -5.5h-256q-17 0 -29.5 12.5t-12.5 30.5v234h-43v43zM192 64v43h-107v-43h107z" />
    <glyph glyph-name="packages" unicode="packages" 
d="M385 320v-43h-267h-74v43h341zM342 405v-43h-201h-55v43h256zM0 235h427v-43h-43v-171q0 -17 -12.5 -29.5t-30.5 -12.5h-256q-17 0 -29.5 12.5t-12.5 29.5v171h-43v43zM192 43v42h-107v-42h107z" />
    <glyph glyph-name="patterns" unicode="patterns" horiz-adv-x="470" 
d="M1 362.5q0 26.5 18.5 45t45 18.5t45.5 -18.5t19 -45t-19 -45.5t-45.5 -19t-45 19t-18.5 45.5zM299 192q0 -19 -12.5 -36.5t-30.5 -24.5v-50q18 -6 31 -24t13 -37q0 -27 -18.5 -45.5t-45.5 -18.5q-19 0 -37 13t-24 31h-50q-6 -18 -24 -31t-37 -13q-26 0 -45 19t-19 45
q0 13 5.5 25t15.5 22t22 14v50q-18 7 -30.5 24.5t-12.5 36.5q0 26 19 45t45.5 19t45 -19t18.5 -45q0 -19 -12.5 -36.5t-30.5 -24.5v-50q12 -4 23.5 -15.5t16.5 -22.5h50q4 11 15.5 22t22.5 16v50q-17 7 -29 24.5t-12 36t12 36t29 24.5v50q-17 7 -29.5 24.5t-12.5 36.5
q0 26 19 45t45 19q12 0 24.5 -6t22 -15.5t13.5 -21.5h51q6 18 23.5 30.5t36.5 12.5q27 0 45.5 -19t18.5 -45q0 -19 -12.5 -37t-30.5 -24v-50q17 -7 29.5 -24.5t12.5 -36.5q0 -26 -18.5 -45t-45 -19t-45.5 19t-19 45q0 19 12.5 36.5t30.5 24.5v50q-12 5 -23 16t-15 23h-51
q-2 -8 -8.5 -16t-14.5 -14t-16 -9v-50q18 -6 30.5 -23.5t12.5 -36.5zM342 20.5q0 26.5 18.5 45.5t45 19t45.5 -19t19 -45q0 -18 -8.5 -32.5t-23.5 -23t-32 -8.5q-27 0 -45.5 18.5t-18.5 45z" />
    <glyph glyph-name="pin" unicode="pin" horiz-adv-x="404" 
d="M347 239l30 -30l-75 -76l102 -101l-30 -31l-102 102l-76 -75l-30 30v60l-121 121l-15 -15l-30 30l151 151l30 -30l-15 -15l121 -121h60z" />
    <glyph glyph-name="primitive" unicode="primitive" horiz-adv-x="425" 
d="M166 192q0 19 13.5 33t33 14t33 -14t13.5 -33t-13.5 -33t-33 -14t-33 14t-13.5 33zM418 311q12 -23 2 -54t-39 -65q29 -34 39 -65t-2 -54q-19 -32 -74 -32h-1q-14 0 -27 2q-7 1 -20 3q-15 -41 -36.5 -65t-47 -24t-47 24t-36.5 66q-23 -5 -47 -6q-56 0 -75 32
q-12 23 -2 54t39 65q-63 72 -37 119q26 45 122 26q10 28 22.5 48t28.5 31t32.5 11t32.5 -11t28.5 -31t22.5 -47q18 3 20 3q79 10 102 -30zM319 317q-7 -1 -16 -4q9 -31 12 -63q26 -19 49 -41q16 18 25.5 35t11 30.5t-3.5 22.5q-11 22 -53 22q-13 0 -25 -2zM253 121
q20 12 39 25q2 22 2 44v2v2q0 22 -2 44q-19 13 -39 24q-17 11 -40 22q-21 -10 -41 -21q-20 -12 -39 -25q-2 -22 -2 -44v-2q0 -23 2 -46q19 -13 39 -25q18 -10 41 -21q22 10 40 21zM288 114q-12 -8 -22 -14l-24 -12q19 -8 38 -13q5 18 8 39zM183 88q-11 5 -23 12
q-10 6 -23 14q4 -21 9 -39q19 5 37 13zM107 165v27v27q-15 -13 -29 -27q14 -14 29 -27zM137 270q11 7 23 14q7 4 23 12q-18 8 -38 13q-4 -18 -8 -39zM242 296q16 -8 23 -12q10 -6 23 -14q-4 21 -8 39q-19 -5 -38 -13zM318 219v-27v-27q15 13 29 27q-14 14 -29 27zM213 403
q-16 0 -32 -19t-28 -52q30 -9 60 -21q29 12 59 21q-11 33 -27 52t-32 19zM28 299q-17 -30 33 -90q23 22 49 41q4 33 12 64q-20 4 -40 5q-42 0 -54 -20zM28 85q17 -29 94 -17q-8 32 -12 64q-26 19 -49 42q-24 -27 -32.5 -51t-0.5 -38zM213 -19q10 0 21 8.5t21 24.5t17 38
q-30 9 -59 22q-30 -13 -60 -22q12 -33 27.5 -52t32.5 -19zM397 85q8 14 -0.5 38t-32.5 51q-23 -23 -49 -42q-4 -31 -12 -62q2 -1 5 -1.5l6 -1t5 -0.5q63 -8 78 18z" />
    <glyph glyph-name="product_classes" unicode="product_classes" 
d="M107 405q8 0 14.5 -6t6.5 -15v-384q0 -6 -3 -11t-8 -7.5t-10 -2.5h-86q-8 0 -14.5 6t-6.5 15v384q0 9 6.5 15t14.5 6h86zM64 0q18 0 30.5 12.5t12.5 30t-12.5 30t-30.5 12.5t-30.5 -12.5t-12.5 -30t12.5 -30t30.5 -12.5zM107 192v192h-86v-192h86zM43 42.5q0 8.5 6 15
t15 6.5t15.5 -6.5t6.5 -15t-6.5 -15t-15.5 -6.5t-15 6.5t-6 15zM171 405h107v-149v-43h-107v43v149zM320 405h107v-149v-43h-107v43v149zM171 171h107v-150v-42h-107v42v150zM320 171h107v-150v-42h-107v42v150z" />
    <glyph glyph-name="product_subscriptions" unicode="product_subscriptions" horiz-adv-x="428" 
d="M43 277v43h342v-43h-342zM86 362v43h256v-43h-256zM385 235q18 0 30.5 -12.5t12.5 -30.5v-170q0 -18 -12.5 -30.5t-30.5 -12.5h-342q-18 0 -30.5 12.5t-12.5 30.5v170q0 18 12.5 30.5t30.5 12.5h342zM272 16l-23 68l59 43h-72l-23 71l-22 -70h-72l58 -42l-22 -70l59 43z
" />
    <glyph glyph-name="products" unicode="products" horiz-adv-x="469" 
d="M107 405q8 0 14.5 -6t6.5 -15v-384q0 -9 -6.5 -15t-14.5 -6h-86q-8 0 -14.5 6t-6.5 15v384q0 9 6.5 15t14.5 6h86zM64 0q18 0 30.5 12.5t12.5 30t-12.5 30t-30.5 12.5t-30.5 -12.5t-12.5 -30t12.5 -30t30.5 -12.5zM107 192v192h-86v-192h86zM43 42.5q0 8.5 6 15t15 6.5
t15.5 -6.5t6.5 -15t-6.5 -15t-15.5 -6.5t-15 6.5t-6 15zM277 405q9 0 15.5 -6t6.5 -15v-384q0 -9 -6.5 -15t-15.5 -6h-85q-9 0 -15 6t-6 15v384q0 9 6 15t15 6h85zM234.5 0q17.5 0 30 12.5t12.5 30.5q0 11 -5.5 21t-15.5 15.5t-21 5.5q-18 0 -30.5 -12.5t-12.5 -30t12.5 -30
t30 -12.5zM277 192v192h-85v-192h85zM214 42.5q0 8.5 6 15t15 6.5t15 -6.5t6 -15.5q0 -4 -1.5 -8t-4.5 -7t-7 -4.5t-8 -1.5q-9 0 -15 6.5t-6 15zM448 405q9 0 15 -6t6 -15v-384q0 -9 -6 -15t-15 -6h-85q-9 0 -15.5 6t-6.5 15v384q0 9 6.5 15t15.5 6h85zM405 0q12 0 22 5.5
t15.5 15.5t5.5 22q0 17 -12.5 29.5t-30 12.5t-30 -12.5t-12.5 -30t12.5 -30t29.5 -12.5zM448 192v192h-85v-192h85zM384 42.5q0 8.5 6.5 15t15 6.5t15 -6.5t6.5 -15t-6.5 -15t-15 -6.5t-15 6.5t-6.5 15z" />
    <glyph glyph-name="project" unicode="project" horiz-adv-x="384" 
d="M341 384q18 0 30.5 -12.5t12.5 -30.5v-298q0 -18 -12.5 -30.5t-30.5 -12.5h-298q-18 0 -30.5 12.5t-12.5 30.5v298q0 18 12.5 30.5t30.5 12.5h89q6 17 24 29.5t36.5 12.5t36 -12.5t23.5 -29.5h89zM192 384q-9 0 -15 -6.5t-6 -14.5q0 -6 2.5 -11t7.5 -8t11 -3q9 0 15 6.5
t6 15t-6 15t-15 6.5zM136 256l-72 -71l23 -23l72 73l37 -38l7 -8l15 -15l70 70l32 -31v86h-85l31 -33l-48 -47l-37 37l-22 23zM341 64v32h-298v-32h298z" />
    <glyph glyph-name="proxy" unicode="proxy" horiz-adv-x="405" 
d="M405 315l-30 30l-98 -98q6 -6 10 -12q6 -10 9 -22h45v43l64 -65l-64 -64v43h-45q-3 -11 -9 -22q-5 -6 -10 -11l98 -98l30 30v-90h-90l30 30l-32 32l-71 71q-14 -5 -30 -5q-27 0 -51 18.5t-30 45.5h-51q-5 -9 -16 -15.5t-21 -6.5q-18 0 -30.5 12.5t-12.5 30.5t12.5 30.5
t30.5 12.5q10 0 21 -6.5t16 -15.5h51q4 15 16 31t25 24h2q6 3 11 5h3q6 2 12 3t13 1l7 -1h5l10 -2h2l5 -2l71 71l32 32l-30 30h90v-90z" />
    <glyph glyph-name="ptf" unicode="ptf" horiz-adv-x="341" 
d="M224 48l41 -41q-18 -12 -45.5 -20t-48.5 -8q-71 0 -121 50t-50 120v1q0 45 20 100t49 89v-7v-2q0 -32 22.5 -55t54.5 -23q20 0 37 10t26.5 27t9.5 37v6q-2 52 -16 102q57 -45 97.5 -128.5t40.5 -156.5q0 -13 -3.5 -30t-10 -33.5t-13.5 -27.5l-40 40q6 14 6 30
q0 15 -7.5 33t-18 28t-28.5 17.5t-33 7.5q-19 0 -36 -8l56 -57l-39 -40l-58 57q-9 -19 -9 -39q0 -35 25 -60t60 -25q17 0 32 6z" />
    <glyph glyph-name="repositories" unicode="repositories" horiz-adv-x="341" 
d="M85 -43v86h107v-86l-53 32zM85 299v42h43v-42h-43zM85 192v43h43v-43h-43zM85 85v43h43v-43h-43zM306 426q15 -3 25 -15t10 -27v-341q0 -12 -5.5 -22t-15.5 -15.5t-21 -5.5h-64v43h64v341h-256v-384q-18 0 -30.5 12.5t-12.5 30.5v341q0 18 12.5 30.5t30.5 12.5h256
q4 0 7 -1z" />
    <glyph glyph-name="route" unicode="route" horiz-adv-x="405" 
d="M64 352q26 0 45 -18.5t19 -44.5q0 -22 -16 -51t-32 -48l-16 -19q-7 8 -17.5 20.5t-28.5 44t-18 52.5q0 26 19 45t45 19zM64 267v-1q10 0 16.5 6.5t6.5 15.5v1q0 10 -6.5 16.5t-16 6.5t-16 -6.5t-6.5 -16t6.5 -16t15.5 -6.5zM384 207q9 -5 15 -15.5t6 -20.5
q0 -18 -12.5 -30.5t-30 -12.5t-30 12.5t-12.5 30.5q0 10 6.5 20.5t14.5 15.5v92v1q0 26 -18.5 45t-45.5 19q-26 0 -44.5 -18.5t-19.5 -44.5v-216v-21q0 -35 -25 -60t-60 -25t-60 25t-25 60v43h42v-43v0q0 -18 12.5 -30.5t30.5 -12.5t30.5 12.5t12.5 30.5v0v21v216
q0 44 31.5 75t74.5 31q44 0 75.5 -31.5t31.5 -75.5v-1v-92z" />
    <glyph glyph-name="sandbox" unicode="sandbox" horiz-adv-x="393" 
d="M118 256q0 9 6.5 15.5t15 6.5t15 -6.5t6.5 -15.5t-6.5 -15t-15 -6t-15 6t-6.5 15zM150 192q0 9 6.5 15.5t15 6.5t15 -6.5t6.5 -15.5t-6.5 -15t-15 -6t-15 6t-6.5 15zM86 192q0 6 3 11t8 8t11 3q8 0 14.5 -6.5t6.5 -15.5t-6.5 -15t-15 -6t-15 6t-6.5 15zM341 251l43 43
v-251q0 -18 -12.5 -30.5t-30.5 -12.5h-298q-18 0 -30.5 12.5t-12.5 30.5v298q0 18 12.5 30.5t30.5 12.5h251l-43 -43h-208v-213h85q0 -26 19 -45t45 -19t45 19t19 45h85v123zM299 233q5 -7 2.5 -14t-10.5 -11l-27 -16v0q0 15 -10.5 25.5t-24.5 10.5h-1q-6 0 -12 -3
q-4 9 -13.5 16t-18.5 9l25 41q4 8 11 10t13 -4l17 -16l-6 -6l31 -30l6 5zM275 245l-31 30l6 6l112 112l31 -30l-113 -113z" />
    <glyph glyph-name="service_instance" unicode="service_instance" horiz-adv-x="429" 
d="M385 405h1q18 0 30.5 -12.5t12.5 -29.5v-344q0 -17 -12.5 -29.5t-30.5 -12.5h-343q-18 0 -30.5 12.5t-12.5 29.5v344q0 17 12.5 29.5t30.5 12.5h342zM213.5 149q17.5 0 30 12.5t12.5 30.5t-12.5 30.5t-30 12.5t-30 -12.5t-12.5 -30.5t12.5 -30.5t30 -12.5z" />
    <glyph glyph-name="service_plan" unicode="service_plan" 
d="M107 405q8 0 14.5 -6t6.5 -15v-384q0 -6 -3 -11t-8 -7.5t-10 -2.5h-86q-8 0 -14.5 6t-6.5 15v384q0 9 6.5 15t14.5 6h86zM64 0q18 0 30.5 12.5t12.5 30t-12.5 30t-30.5 12.5t-30.5 -12.5t-12.5 -30t12.5 -30t30.5 -12.5zM107 192v192h-86v-192h86zM43 42.5q0 8.5 6 15
t15 6.5t15.5 -6.5t6.5 -15t-6.5 -15t-15.5 -6.5t-15 6.5t-6 15zM256 362v43h171v-43h-171zM171 362v43h43v-43h-43zM256 277v43h171v-43h-171zM171 277v43h43v-43h-43zM256 192v43h171v-43h-171zM171 192v43h43v-43h-43z" />
    <glyph glyph-name="service" unicode="service" 
d="M0 364q0 31 5 36.5t37 5.5h343q32 0 37 -5.5t5 -36.5v-344q0 -31 -5 -36.5t-37 -5.5h-343q-32 0 -37 5.5t-5 36.5v344z" />
    <glyph glyph-name="smt" unicode="smt" 
d="M85 -43v86h107v-86l-53 32zM85 299v42h43v-42h-43zM85 192v43h43v-43h-43zM85 85v43h43v-43h-43zM392 427q14 -3 24.5 -15.5t10.5 -26.5v-1v-341q0 -18 -12.5 -30.5t-30.5 -12.5h-64v-43l-53 32l-54 -32v470h171h4h4zM320 85v43h-43v-43h43zM320 192v43h-43v-43h43z
M320 299v42h-43v-42h43zM43 427h149v-43h-149v-384q-18 0 -30.5 12.5t-12.5 30.5v341q0 18 12.5 30.5t30.5 12.5z" />
    <glyph glyph-name="snapshot_rollback" unicode="snapshot_rollback" 
d="M43 405h85v-42h-85v-86h-43v86q0 17 12.5 29.5t30.5 12.5zM299 405h85q18 0 30.5 -12.5t12.5 -29.5v-86h-43v86h-85v42zM299 -21v42h85v86h43v-86q0 -17 -12.5 -29.5t-30.5 -12.5h-85zM43 21h85v-42h-85q-18 0 -30.5 12.5t-12.5 29.5v86h43v-86zM221 245q38 0 73 -25.5
t47 -60.5l-30 -10q-9 27 -35.5 46t-54.5 19q-18 0 -39 -9.5t-33 -23.5l43 -42h-107v106l43 -41q16 17 43 29t50 12z" />
    <glyph glyph-name="software" unicode="software" horiz-adv-x="469" 
d="M277 57v-36h43v-42h-171v42h43v43h-149q-12 0 -22 5.5t-15.5 15.5t-5.5 22v256q0 17 12.5 29.5t30.5 12.5h384q17 0 29.5 -12.5t12.5 -29.5v-94q-16 27 -42 45v49h-384v-256h176q10 -14 27 -28.5t31 -21.5zM341 320q53 0 90.5 -37.5t37.5 -90.5t-37.5 -90.5t-90.5 -37.5
t-90.5 37.5t-37.5 90.5t37.5 90.5t90.5 37.5zM341.5 160q13.5 0 22.5 9.5t9 22.5t-9 22.5t-22.5 9.5t-23 -9.5t-9.5 -22.5t9.5 -22.5t23 -9.5z" />
    <glyph glyph-name="state" unicode="state" horiz-adv-x="364" 
d="M129 320h107v-256h-107v256zM215 171v128h-64v-128h64zM321 427q9 0 17 -3.5t13.5 -9.5t9 -13.5t3.5 -16.5v-384q0 -18 -12.5 -30.5t-30.5 -12.5h-278q-18 0 -30.5 12.5t-12.5 30.5v384q0 18 12.5 30.5t30.5 12.5h278zM321 0v384h-277v-384h277z" />
    <glyph glyph-name="subscriptions_created" unicode="subscriptions_created" 
d="M43 277v43h341v-43h-341zM86 362v43h256v-43h-256zM384 235q18 0 30.5 -12.5t12.5 -30.5v-171q0 -17 -12.5 -29.5t-30.5 -12.5h-341q-18 0 -30.5 12.5t-12.5 29.5v171q0 12 5.5 21.5t15.5 15.5t22 6h341zM177 21l143 142l-30 30l-113 -113l-40 40l-30 -30z" />
    <glyph glyph-name="symlink" unicode="symlink" horiz-adv-x="341" 
d="M213 405l128 -128v-256q0 -17 -12.5 -29.5t-29.5 -12.5h-256q-18 0 -30.5 12.5t-12.5 29.5v342q0 17 12.5 29.5t30.5 12.5h170zM192 33l85 79l-85 80v-45q-105 -15 -128 -126q43 58 128 58v-46zM192 256h118l-118 117v-117z" />
    <glyph glyph-name="system_group" unicode="system_group" horiz-adv-x="469" 
d="M341 427v-43h-298v-192h-43v192q0 18 12.5 30.5t30.5 12.5h298zM427 341q17 0 29.5 -12.5t12.5 -29.5v-214q0 -17 -12.5 -29.5t-29.5 -12.5h-118v-33h32v-31h-128v31h33v33h-118q-18 0 -30.5 12.5t-12.5 29.5v214q0 17 12.5 29.5t30.5 12.5h299zM427 85v214h-299v-214
h299z" />
    <glyph glyph-name="system_image" unicode="system_image" horiz-adv-x="320" 
d="M277 384l43 21v-384q0 -17 -12.5 -29.5t-30.5 -12.5h-234q-18 0 -30.5 12.5t-12.5 29.5v320q0 18 12.5 30.5t30.5 12.5h234zM43 320v-43h170v43h-170zM128 21v43h-43v-43h43zM128 149v-42h85v42h-85zM277 21v43h-128v-43h128zM277 107v42h-42v-42h42zM277 192v43h-106
v-43h106zM277 277v43h-42v-43h42z" />
    <glyph glyph-name="system_re_registered" unicode="system_re_registered" horiz-adv-x="469" 
d="M427 405q17 0 29.5 -12.5t12.5 -29.5v-256q0 -12 -5.5 -22t-15.5 -15.5t-21 -5.5h-150v-43h43v-42h-171v42h43v43h-149q-12 0 -22 5.5t-15.5 15.5t-5.5 22v256q0 17 12.5 29.5t30.5 12.5h384zM427 256v107h-384v-107h106v64l86 -85l-86 -86v64h-106v-106h384v106h-150v43
h150z" />
    <glyph glyph-name="templates" unicode="templates" horiz-adv-x="384" 
d="M341 405q12 0 22 -5.5t15.5 -15.5t5.5 -21v-342q0 -17 -12.5 -29.5t-30.5 -12.5h-298q-18 0 -30.5 12.5t-12.5 29.5v342q0 11 5.5 21t15.5 15.5t22 5.5h298zM43 363v-43h277v43h-277zM43 277v-42h170v42h-170zM318 192h-251l125 -64zM43 192zM43 180v-126l126 64zM43 43z
M67 43h252l-127 62zM342 55v125l-126 -63z" />
    <glyph glyph-name="timeout" unicode="timeout" horiz-adv-x="426" 
d="M179 171l-111 111q10 17 24 31l100 -100v-42l106 -64l36 -36q-14 -14 -31 -24zM364 41l27 -27l-27 -28l-30 30q16 11 30 25zM34 370l28 -27q-14 -14 -25 -30l-30 30zM298 107l-106 64v42v86h32v-112l96 -57l-16 -27zM364 41q-14 -14 -30 -25q-23 -15 -58 -26t-63 -11
q-88 0 -150.5 62.5t-62.5 150.5q0 28 11 63t26 58q11 16 25 30l30 -30q-13 -14 -24 -31q-10 -17 -17.5 -43t-7.5 -46q0 -71 50 -121t121 -50q20 0 46 7.5t43 17.5q17 11 31 24zM213 363q-20 0 -46.5 -8t-43.5 -18l-31 31q22 15 57.5 26t62.5 11h1q88 0 150.5 -62.5
t62.5 -150.5q0 -27 -11 -62.5t-27 -58.5l-31 31q6 8 10.5 19.5t8 23.5t5.5 24.5t2 22.5q0 71 -50 121t-120 50z" />
    <glyph glyph-name="troubleshooting" unicode="troubleshooting" horiz-adv-x="512" 
d="M491 213h21v-42h-43q-7 -73 -62.5 -129t-128.5 -63v-43h-42v42q-73 7 -129 63t-63 129h-44v42h44q7 72 63 128.5t128 63.5v44h42v-44q73 -7 129 -63t63 -128h22zM293 213h51q-6 22 -25.5 41.5t-41.5 25.5v-51q10 -6 16 -16zM344 171h-51q-6 -10 -16 -16v-51
q22 6 41.5 25.5t25.5 41.5zM235 361q-55 -7 -98 -50t-50 -98h48q7 35 36 64t64 36v48zM219 213q6 10 16 16v51q-22 -6 -41.5 -25.5t-25.5 -41.5h51zM235 155q-10 6 -16 16h-51q6 -22 25.5 -41.5t41.5 -25.5v51zM87 171q4 -36 25.5 -68.5t54 -54t68.5 -25.5v48q-35 7 -64 36
t-36 64h-48zM277 23q36 4 68.5 25.5t54 54t25.5 68.5h-48q-7 -35 -36 -64t-64 -36v-48zM377 213h48q-7 55 -50 98t-98 50v-48q35 -7 64 -36t36 -64z" />
    <glyph glyph-name="trusted_organization" unicode="trusted_organization" horiz-adv-x="299" 
d="M299 256q0 -21 -9 -45t-23.5 -44.5t-31.5 -32.5l64 -113l-46 -7l-28 -35l-76 128l-75 -128l-29 35l-45 7l65 113q-27 18 -46 54t-19 69q0 62 44 105.5t105.5 43.5t105.5 -43.5t44 -105.5v-1zM176 153h-1q20 5 37 18q18 13 31 38t13 48q0 44 -31.5 75.5t-75.5 31.5
t-75 -31.5t-31 -75.5q0 -23 12.5 -48t31.5 -38q16 -13 37 -18q12 -4 25.5 -4t26.5 4zM85 255.5q0 26.5 19 45.5t45 19q13 0 25 -5t20.5 -13.5t13.5 -20.5t5 -25q0 -27 -18.5 -45.5t-45 -18.5t-45.5 18.5t-19 45z" />
    <glyph glyph-name="unpatched" unicode="unpatched" horiz-adv-x="469" 
d="M427 405q17 0 29.5 -12.5t12.5 -29.5v-256q0 -12 -5.5 -22t-15.5 -15.5t-21 -5.5h-150v-43h43v-42h-171v42h43v43h-149q-12 0 -22 5.5t-15.5 15.5t-5.5 22v256q0 17 12.5 29.5t30.5 12.5h384zM427 107v256h-384v-256h384zM214 128v43h42v-43h-42zM214 214v128h42v-128
h-42z" />
    <glyph glyph-name="virtual_guest" unicode="virtual_guest" horiz-adv-x="469" 
d="M427 405q17 0 29.5 -12.5t12.5 -29.5v-256q0 -12 -5.5 -22t-15.5 -15.5t-21 -5.5h-150v-43h43v-42h-171v42h43v43h-149q-12 0 -22 5.5t-15.5 15.5t-5.5 22v256q0 17 12.5 29.5t30.5 12.5h384zM427 107v256h-384v-256h384zM107 299q0 8 6 14.5t15 6.5h213q9 0 15.5 -6.5
t6.5 -14.5v-128q0 -9 -6.5 -15.5t-15.5 -6.5h-213q-9 0 -15 6.5t-6 15.5v128zM341 171v106h-213v-106h213z" />
    <glyph glyph-name="virtual_host_manager" unicode="virtual_host_manager" 
d="M391 64q15 -2 25.5 -14.5t10.5 -27.5v-1v-2v-2q-1 -13 -11.5 -24.5t-24.5 -13.5h-7q-10 0 -21 6t-16 15h-268q-5 -9 -15.5 -15t-20.5 -6h-7q-13 2 -23.5 12.5t-12.5 23.5v3v3q0 10 6.5 21t14.5 16v268q-5 4 -10 10t-7.5 13t-2.5 14q0 18 12.5 30.5t30.5 12.5
q14 0 26.5 -10.5t14.5 -24.5l177 -32q5 10 16 16.5t22 6.5q18 0 30.5 -12t12.5 -30q0 -20 -16 -33zM81 41q2 -5 3 -9h259v1l-41 24q-15 -14 -35 -14q-21 0 -37 14.5t-17 35.5v0v3q0 14 7 26l-26 31q-10 -3 -20 -3q-8 0 -15 1l-82 -104zM277 284l-35 -29q6 -15 6 -30
q0 -17 -9.5 -35t-23.5 -27l20 -25q14 11 32 11q22 0 37.5 -15.5t15.5 -37.5v-1v-3q-1 -4 -2 -9l45 -26l6 3l-63 217h-2.5h-3.5q-12 1 -23 7zM83 348v1l52 -61q18 11 39 11q14 0 30.5 -7.5t25.5 -18.5l33 27q-5 8 -5 17zM43 320v-256q9 0 17 -4l78 100q-11 5 -20 16t-14 24
t-5 25q0 28 19 49l-48 56q-11 -10 -27 -10z" />
    <glyph glyph-name="3d_rotation" unicode="&#x33;d_rotation" horiz-adv-x="510" 
d="M159 -10l29 28l81 -81l-14 -1q-100 0 -173.5 68t-81.5 167h32q6 -60 40 -108t87 -73zM178 129q14 0 21 7t7 20q0 7 -2 12t-6 8q-4 4 -9.5 5.5t-13.5 1.5h-16v22h16q8 0 13 2t8 5q4 3 6 8t2 10q0 12 -7 19q-6 6 -19 6q-5 0 -10 -2q-4 -1 -8 -4q-3 -3 -5 -8q-2 -4 -2 -9
h-28q0 10 4 18t11 14t17 10q9 3 21 3q11 0 22 -3q10 -3 16 -9q7 -6 11 -15t4 -20q0 -5 -2 -10q-1 -5 -4 -10q-4 -5 -8 -9q-5 -4 -11 -7q7 -3 13 -7q5 -4 8 -9q3 -4 5 -11q2 -5 2 -12q0 -11 -5 -20q-4 -9 -11.5 -15.5t-17.5 -9.5t-22 -3q-11 0 -21 3q-9 3 -17 9t-12 14.5
t-4 20.5h27q0 -6 2 -10.5t6 -7.5q3 -3 8 -5t11 -2zM360.5 255.5q10.5 -10.5 16.5 -25.5q5 -16 5 -34v-8q0 -19 -5 -34q-6 -15 -16 -25q-10 -11 -25 -17q-14 -5 -32 -5h-49v170h50q18 0 31.5 -5.5t24 -16zM352 188v8q0 28 -12 43q-12 14 -35 14h-20v-123h19q12 0 21 4t15 11
q6 8 9 19t3 24zM255 448q49 0 94.5 -18.5t79 -49.5t55.5 -74.5t26 -91.5h-32q-6 59 -40.5 107t-86.5 73l-29 -28l-81 81z" />
    <glyph glyph-name="ac_unit" unicode="ac_unit" 
d="M427 213v-42h-89l69 -69l-30 -31l-100 100h-42v-43l99 -99l-30 -30l-69 69v-89h-43v89l-69 -69l-30 30l99 99v43h-43l-99 -100l-30 31l69 69h-89v42h89l-69 69l30 31l99 -100h43v43l-99 99l30 30l69 -69v89h43v-89l69 69l30 -30l-99 -99v-43h42l100 100l30 -31l-69 -69
h89z" />
    <glyph glyph-name="access_alarm" unicode="access_alarm" 
d="M427 326l-28 -33l-98 83l28 32zM125 376l-97 -82l-28 32l98 82zM224 277v-112l85 -50l-16 -26l-101 60v128h32zM213.5 363q79.5 0 135.5 -56.5t56 -136t-56 -135.5t-135.5 -56t-136 56t-56.5 135.5t56.5 136t136 56.5zM213 21q62 0 106 44t44 106t-44 105.5t-106 43.5
t-105.5 -43.5t-43.5 -105.5t43.5 -106t105.5 -44z" />
    <glyph glyph-name="access_alarms" unicode="access_alarms" 
d="M427 326l-28 -32l-98 84l28 32zM126 375l-98 -81l-28 32l98 81zM224 277v-113l85 -51l-17 -26l-100 62v128h32zM213 363q80 0 136 -56t56 -136t-56 -136t-136 -56t-136 56t-56 136t56 136t136 56zM213.5 21q62.5 0 106 43.5t43.5 106t-43.5 106t-106 43.5t-106 -43.5
t-43.5 -106t43.5 -106t106 -43.5z" />
    <glyph glyph-name="access_time" unicode="access_time" 
d="M213.5 405q88.5 0 151 -62.5t62.5 -150.5q0 -58 -28.5 -107t-78 -77.5t-107.5 -28.5q-88 0 -150.5 62.5t-62.5 150.5t62.5 150.5t151 62.5zM213.5 21q70.5 0 120.5 50t50 121t-50 121t-120.5 50t-120.5 -50t-50 -121t50 -121t120.5 -50zM224 299v-112l96 -57l-16 -27
l-112 68v128h32z" />
    <glyph glyph-name="accessibility" unicode="accessibility" horiz-adv-x="384" 
d="M192 405q12 0 21.5 -5.5t15.5 -15.5t6 -21q0 -18 -12.5 -30.5t-30.5 -12.5t-30.5 12.5t-12.5 30.5q0 8 3.5 16t9.5 14t13.5 9t16.5 3zM384 256h-128v-277h-43v128h-42v-128h-43v277h-128v43h384v-43z" />
    <glyph glyph-name="accessible" unicode="accessible" horiz-adv-x="299" 
d="M107 362.5q0 17.5 12.5 30t29.5 12.5q9 0 17 -3t13.5 -9t9 -14t3.5 -16q0 -18 -12.5 -30.5t-30 -12.5t-30 12.5t-12.5 30zM299 171q-18 0 -38 5.5t-37.5 15t-31.5 20.5v-73h64q9 0 16.5 -3.5t13.5 -9.5t9.5 -13.5t3.5 -16.5v-117h-43v106h-107q-17 0 -29.5 12.5
t-12.5 30.5v126q0 7 1.5 13t5 11.5t8.5 9.5t11 7t12 3q14 1 26 -5v-1q8 -3 13 -9l28 -31q36 -39 87 -39v-42zM167 64h44q-7 -37 -36.5 -61t-67.5 -24q-44 0 -75.5 31t-31.5 75q0 26 11 48t30.5 37t43.5 20v-44q-19 -7 -30.5 -23.5t-11.5 -37.5q0 -26 18.5 -45t45.5 -19
q20 0 36.5 12t23.5 31z" />
    <glyph glyph-name="account_balance_wallet" unicode="account_balance_wallet" horiz-adv-x="405" 
d="M384 64v-21q0 -18 -12.5 -30.5t-30.5 -12.5h-298q-18 0 -30.5 12.5t-12.5 30.5v298q0 18 12.5 30.5t30.5 12.5h298q18 0 30.5 -12.5t12.5 -30.5v-21h-192q-18 0 -30.5 -12.5t-12.5 -30.5v-170q0 -18 12.5 -30.5t30.5 -12.5h192zM192 107v170h213v-170h-213zM277.5 160
q13.5 0 22.5 9.5t9 22.5t-9 22.5t-22.5 9.5t-23 -9.5t-9.5 -22.5t9.5 -22.5t23 -9.5z" />
    <glyph glyph-name="account_balance" unicode="account_balance" horiz-adv-x="405" 
d="M43 235h64v-150h-64v150zM171 235h64v-150h-64v150zM0 -21v64h405v-64h-405zM299 235h64v-150h-64v150zM203 427l202 -107v-43h-405v43z" />
    <glyph glyph-name="account_box" unicode="account_box" horiz-adv-x="384" 
d="M0 341q0 18 12.5 30.5t30.5 12.5h298q18 0 30.5 -12.5t12.5 -30.5v-298q0 -18 -12.5 -30.5t-30.5 -12.5h-298q-18 0 -30.5 12.5t-12.5 30.5v298zM256 256q0 27 -18.5 45.5t-45.5 18.5t-45.5 -18.5t-18.5 -45.5t18.5 -45.5t45.5 -18.5t45.5 18.5t18.5 45.5zM64 85v-21h256
v21q0 20 -23.5 36t-52.5 23t-52 7t-52 -7t-52.5 -23t-23.5 -36z" />
    <glyph glyph-name="account_circle" unicode="account_circle" 
d="M213.5 405q88.5 0 151 -62.5t62.5 -150.5t-62.5 -150.5t-151 -62.5t-151 62.5t-62.5 150.5t62.5 150.5t151 62.5zM213 341q-17 0 -32 -8.5t-23.5 -23t-8.5 -32.5q0 -26 19 -45t45.5 -19t45 19t18.5 45.5t-18.5 45t-45.5 18.5zM213.5 38q39.5 0 73 18.5t54.5 50.5
q0 20 -23.5 35.5t-52 23t-52 7.5t-52 -7.5t-52 -23t-24.5 -35.5q21 -32 55 -50.5t73.5 -18.5z" />
    <glyph glyph-name="adb" unicode="adb" horiz-adv-x="299" 
d="M0 107v85h299v-85q0 -62 -44 -106t-106 -44t-105.5 44t-43.5 106zM237 355q29 -21 45.5 -52.5t16.5 -67.5v-22h-299v22q0 24 7.5 46.5t21.5 41t32 32.5l-44 45l17 17l49 -49q32 16 66 16t66 -16l50 49l17 -17zM85.5 256q8.5 0 15 6.5t6.5 14.5q0 6 -3 11t-8 8t-11 3
q-8 0 -14.5 -6.5t-6.5 -15t6.5 -15t15 -6.5zM213.5 256q8.5 0 15 6.5t6.5 15t-6.5 15t-15 6.5t-15 -6.5t-6.5 -15t6.5 -15t15 -6.5z" />
    <glyph glyph-name="add_a_photo" unicode="add_a_photo" horiz-adv-x="491" 
d="M64 363v64h43v-64h64v-43h-64v-64h-43v64h-64v43h64zM128 235v64h64v64h149l39 -43h68q18 0 30.5 -12.5t12.5 -30.5v-256q0 -17 -12.5 -29.5t-30.5 -12.5h-341q-18 0 -30.5 12.5t-12.5 29.5v214h64zM277 43q44 0 75.5 31t31.5 75t-31.5 75.5t-75.5 31.5t-75 -31.5
t-31 -75.5t31 -75t75 -31zM209 149.5q0 28.5 20 48.5t48.5 20t48.5 -20t20 -49q0 -18 -9.5 -34t-25 -25t-34.5 -9q-28 0 -48 20t-20 48.5z" />
    <glyph glyph-name="add_alarm" unicode="add_alarm" 
d="M125 376l-97 -82l-28 32l98 82zM427 326l-28 -33l-98 83l28 32zM213.5 363q79.5 0 135.5 -56.5t56 -136t-56 -135.5t-135.5 -56t-136 56t-56.5 135.5t56.5 136t136 56.5zM213 21q62 0 106 44t44 106t-44 105.5t-106 43.5t-105.5 -43.5t-43.5 -105.5t43.5 -106t105.5 -44z
M235 256v-64h64v-43h-64v-64h-43v64h-64v43h64v64h43z" />
    <glyph glyph-name="add_alert" unicode="add_alert" horiz-adv-x="384" 
d="M150 0h84q0 -12 -5.5 -21.5t-15 -15.5t-21.5 -6q-18 0 -30 12.5t-12 30.5zM339 89l45 -45v-23h-384v23l45 45v124q0 52 32 91.5t81 51.5v15q0 14 10 24t24 10t24 -10t10 -24v-15q49 -12 81 -51.5t32 -91.5v-124zM277 170v43h-64v64h-42v-64h-64v-43h64v-64h42v64h64z" />
    <glyph glyph-name="add_box" unicode="add_box" horiz-adv-x="384" 
d="M341 384q18 0 30.5 -12.5t12.5 -30.5v-298q0 -18 -12.5 -30.5t-30.5 -12.5h-298q-18 0 -30.5 12.5t-12.5 30.5v298q0 18 12.5 30.5t30.5 12.5h298zM299 171v42h-86v86h-42v-86h-86v-42h86v-86h42v86h86z" />
    <glyph glyph-name="add_circle_outline" unicode="add_circle_outline" 
d="M235 299v-86h85v-42h-85v-86h-43v86h-85v42h85v86h43zM213.5 405q88.5 0 151 -62.5t62.5 -150.5t-62.5 -150.5t-151 -62.5t-151 62.5t-62.5 150.5t62.5 150.5t151 62.5zM213.5 21q70.5 0 120.5 50t50 121t-50 121t-120.5 50t-120.5 -50t-50 -121t50 -121t120.5 -50z" />
    <glyph glyph-name="add_circle" unicode="add_circle" 
d="M213.5 405q88.5 0 151 -62.5t62.5 -150.5t-62.5 -150.5t-151 -62.5t-151 62.5t-62.5 150.5t62.5 150.5t151 62.5zM320 171v42h-85v86h-43v-86h-85v-42h85v-86h43v86h85z" />
    <glyph glyph-name="add_location" unicode="add_location" horiz-adv-x="299" 
d="M149.5 405q61.5 0 105.5 -43.5t44 -105.5q0 -31 -15.5 -71.5t-37.5 -75t-44 -65t-37 -48.5l-16 -17q-6 6 -16 18t-35.5 46.5t-45.5 67t-36 73.5t-16 72q0 62 44 105.5t105.5 43.5zM235 235v42h-64v64h-43v-64h-64v-42h64v-64h43v64h64z" />
    <glyph glyph-name="add_shopping_cart" unicode="add_shopping_cart" horiz-adv-x="430" 
d="M213 256v64h-64v43h64v64h43v-64h64v-43h-64v-64h-43zM128 64q18 0 30.5 -12.5t12.5 -30t-12.5 -30t-30.5 -12.5t-30 12.5t-12 30t12 30t30 12.5zM341 64q9 0 17 -3.5t13.5 -9t9 -13.5t3.5 -17q0 -17 -12.5 -29.5t-30 -12.5t-30 12.5t-12.5 30t12.5 30t29.5 12.5z
M132 133q0 -5 5 -5h247v-43h-256q-18 0 -30.5 12.5t-12.5 30.5q0 11 6 20l28 53l-76 162h-43v42h70l20 -42l20 -43l48 -101l3 -6h149l59 107l24 43l37 -21l-82 -149q-12 -22 -38 -22h-159l-19 -35v-3z" />
    <glyph glyph-name="add_to_photos" unicode="add_to_photos" 
d="M43 320v-299h298v-42h-298q-18 0 -30.5 12.5t-12.5 29.5v299h43zM384 405q18 0 30.5 -12.5t12.5 -29.5v-256q0 -18 -12.5 -30.5t-30.5 -12.5h-256q-18 0 -30.5 12.5t-12.5 30.5v256q0 8 3.5 16t9.5 14t13.5 9t16.5 3h256zM363 213v43h-86v85h-42v-85h-86v-43h86v-85h42
v85h86z" />
    <glyph glyph-name="add_to_queue" unicode="add_to_queue" horiz-adv-x="469" 
d="M427 384q11 0 21 -5.5t15.5 -15.5t5.5 -22v-256q0 -17 -12.5 -29.5t-29.5 -12.5h-107v-43h-171v43h-106q-18 0 -30.5 12.5t-12.5 29.5v256q0 18 12.5 30.5t30.5 12.5h384zM427 85v256h-384v-256h384zM320 235v-43h-64v-64h-43v64h-64v43h64v64h43v-64h64z" />
    <glyph glyph-name="add" unicode="add" horiz-adv-x="299" 
d="M299 171h-128v-128h-43v128h-128v42h128v128h43v-128h128v-42z" />
    <glyph glyph-name="adjust" unicode="adjust" 
d="M213 405q88 0 151 -62.5t63 -150.5t-63 -150.5t-151 -62.5t-150.5 62.5t-62.5 150.5t62.5 150.5t150.5 62.5zM213.5 21q70.5 0 120.5 50t50 121t-50 121t-120.5 50t-120.5 -50t-50 -121t50 -121t120.5 -50zM277 192q0 -27 -18.5 -45.5t-45 -18.5t-45.5 18.5t-19 45.5
t19 45.5t45.5 18.5t45 -18.5t18.5 -45.5z" />
    <glyph glyph-name="airline_seat_flat_angled" unicode="airline_seat_flat_angled" horiz-adv-x="448" 
d="M443 143l-15 -40l-264 95l45 121l182 -66q34 -12 49 -44t3 -66zM0 189l15 40l405 -146l-14 -40l-97 34v-34h-170v96zM124 230.5q-24 -11.5 -49 -3t-36.5 32.5t-3 49t32.5 36.5t49 3t36.5 -32.5t3 -49t-32.5 -36.5z" />
    <glyph glyph-name="airline_seat_flat" unicode="airline_seat_flat" 
d="M427 213v-42h-278v128h192q36 0 61 -25t25 -61zM0 149h427v-42h-128v-43h-171v43h-128v42zM109.5 190q-18.5 -19 -45 -19.5t-45.5 18.5t-19 45t18.5 45t45 19.5t45.5 -18t19 -45t-18.5 -45.5z" />
    <glyph glyph-name="airline_seat_individual_suite" unicode="airline_seat_individual_suite" horiz-adv-x="469" 
d="M128 171q-17 0 -32 8.5t-23.5 23t-8.5 32.5q0 26 19 45t45 19t45 -19t19 -45.5t-19 -45t-45 -18.5zM384 299q35 0 60 -25t25 -61v-128h-469v214h43v-150h170v150h171z" />
    <glyph glyph-name="airline_seat_legroom_extra" unicode="airline_seat_legroom_extra" horiz-adv-x="448" 
d="M43 192q0 -27 18.5 -45.5t45.5 -18.5h128v-43h-128q-44 0 -75.5 31.5t-31.5 75.5v192h43v-192zM444 80q7 -12 2.5 -25t-17.5 -19l-79 -36l-73 149h-149q-27 0 -45.5 19t-18.5 45v171h128v-128h75q26 0 38 -24l73 -149l23 11q12 5 24.5 1.5t18.5 -15.5z" />
    <glyph glyph-name="airline_seat_legroom_normal" unicode="airline_seat_legroom_normal" horiz-adv-x="405" 
d="M43 192q0 -27 18.5 -45.5t45.5 -18.5h128v-43h-128q-44 0 -75.5 31.5t-31.5 75.5v192h43v-192zM373 64q14 0 23 -9.5t9 -22.5t-9 -22.5t-23 -9.5h-96v149h-149q-17 0 -32 9t-23.5 23.5t-8.5 31.5v171h128v-128h107q8 0 16 -3.5t14 -9t9 -13.5t3 -17v-149h32z" />
    <glyph glyph-name="airline_seat_legroom_reduced" unicode="airline_seat_legroom_reduced" horiz-adv-x="363" 
d="M362 38q3 -15 -6.5 -26.5t-24.5 -11.5h-96v64l21 85h-128q-17 0 -32 9t-23.5 23.5t-8.5 31.5v171h128v-128h107q8 0 16 -3.5t14 -9t9 -13.5t3 -17l-42 -149h30q12 0 21.5 -7t11.5 -19zM43 192q0 -27 18.5 -45.5t45.5 -18.5h85v-43h-85q-44 0 -75.5 31.5t-31.5 75.5v192
h43v-192z" />
    <glyph glyph-name="airline_seat_recline_extra" unicode="airline_seat_recline_extra" 
d="M71.5 328q-14.5 10 -17.5 27.5t7 32t27.5 17.5t32 -7.5t17.5 -27.5t-7 -31.5t-27.5 -17.5t-32 7zM299 43v-43h-151q-39 0 -69 25.5t-37 64.5l-42 209h43l42 -202q3 -24 21 -39t42 -15h151zM304 128l123 -96l-32 -32l-82 64h-146q-23 0 -40.5 14.5t-22.5 37.5l-29 126
q-2 13 2.5 25t14.5 20.5t23 10.5q10 2 21 -1q10 -3 16 -8l35 -27q47 -37 100 -27v-46q-48 -8 -110 26l22 -87h105z" />
    <glyph glyph-name="airline_seat_recline_normal" unicode="airline_seat_recline_normal" horiz-adv-x="341" 
d="M76.5 332.5q-12.5 12.5 -12.5 30t12.5 30t30 12.5t30 -12.5t12.5 -30t-12.5 -30t-30 -12.5t-30 12.5zM43 107q0 -27 18.5 -45.5t45.5 -18.5h128v-43h-128q-44 0 -75.5 31.5t-31.5 75.5v192h43v-192zM341 20l-30 -31l-75 75h-108q-27 0 -45.5 18.5t-18.5 45.5v123
q0 20 14 34t34 14h1q10 0 20 -5q9 -4 15 -11l30 -33q17 -19 45 -31.5t54 -11.5v-47q-29 0 -61 13.5t-56 33.5v-79h73z" />
    <glyph glyph-name="airplanemode_active" unicode="airplanemode_active" horiz-adv-x="405" 
d="M175 256zM405 107l-170 53v-117l42 -32v-32l-74 21l-75 -21v32l43 32v117l-171 -53v42l171 107v117q0 14 9 23t22.5 9t23 -9t9.5 -23v-117l170 -107v-42z" />
    <glyph glyph-name="airplanemode_inactive" unicode="airplanemode_inactive" horiz-adv-x="405" 
d="M235 256l170 -107v-42l-67 21l-167 167v78q0 14 9 23t22.5 9t23 -9t9.5 -23v-117zM21 336l27 27l336 -336l-27 -27l-122 122v-79l42 -32v-32l-74 21l-75 -21v32l43 32v117l-171 -53v42l128 80z" />
    <glyph glyph-name="airplay" unicode="airplay" horiz-adv-x="469" 
d="M107 -21l128 128l128 -128h-256zM427 384q17 0 29.5 -12.5t12.5 -30.5v-256q0 -17 -12.5 -29.5t-29.5 -12.5h-86v42h86v256h-384v-256h85v-42h-85q-18 0 -30.5 12.5t-12.5 29.5v256q0 18 12.5 30.5t30.5 12.5h384z" />
    <glyph glyph-name="airport_shuttle" unicode="airport_shuttle" horiz-adv-x="469" 
d="M341 341l128 -128v-106h-53q0 -27 -18.5 -45.5t-45.5 -18.5t-45.5 18.5t-18.5 45.5h-117q0 -18 -8.5 -32.5t-23.5 -23t-32 -8.5q-27 0 -45.5 18.5t-18.5 45.5h-43v192q0 17 12.5 29.5t30.5 12.5h298zM43 213h85v86h-85v-86zM106.5 75q13.5 0 23 9t9.5 22.5t-9.5 23
t-23 9.5t-22.5 -9.5t-9 -23t9 -22.5t22.5 -9zM256 213v86h-85v-86h85zM352 75q13 0 22.5 9t9.5 22.5t-9.5 23t-22.5 9.5t-22.5 -9.5t-9.5 -23t9.5 -22.5t22.5 -9zM299 213h106l-85 86h-21v-86z" />
    <glyph glyph-name="alarm_add" unicode="alarm_add" 
d="M125 376l-97 -82l-28 32l98 82zM427 326l-28 -33l-98 83l28 32zM213.5 363q79.5 0 135.5 -56.5t56 -136t-56 -135.5t-135.5 -56t-136 56t-56.5 135.5t56.5 136t136 56.5zM213 21q62 0 106 44t44 106t-44 105.5t-106 43.5t-105.5 -43.5t-43.5 -105.5t43.5 -106t105.5 -44z
M235 256v-64h64v-43h-64v-64h-43v64h-64v43h64v64h43z" />
    <glyph glyph-name="alarm_off" unicode="alarm_off" horiz-adv-x="434" 
d="M221 320q-26 0 -51 -9l-33 32q40 20 84 20q79 0 135.5 -56.5t56.5 -135.5q0 -44 -20 -84l-32 32q9 26 9 52q0 62 -43.5 105.5t-105.5 43.5zM434 326l-27 -33l-99 83l28 32zM27 399l21 -21l372 -372l-27 -27l-47 47q-54 -47 -125 -47q-80 0 -136 56t-56 136q0 71 47 125
l-17 17l-24 -20l-30 31l23 19l-28 29zM316 56l-210 210q-35 -42 -35 -95q0 -62 44 -106t106 -44q54 0 95 35zM136 378l-18 -15l-31 30l19 15z" />
    <glyph glyph-name="alarm_on" unicode="alarm_on" 
d="M427 326l-28 -33l-98 83l28 32zM125 376l-97 -82l-28 32l98 82zM213.5 363q79.5 0 135.5 -56.5t56 -136t-56 -135.5t-135.5 -56t-136 56t-56.5 135.5t56.5 136t136 56.5zM213 21q62 0 106 44t44 106t-44 105.5t-106 43.5t-105.5 -43.5t-43.5 -105.5t43.5 -106t105.5 -44z
M182 138l105 106l23 -23l-128 -128l-68 68l23 22z" />
    <glyph glyph-name="alarm" unicode="alarm" 
d="M427 326l-28 -33l-98 83l28 32zM125 376l-97 -82l-28 32l98 82zM224 277v-112l85 -50l-16 -26l-101 60v128h32zM213.5 363q79.5 0 135.5 -56.5t56 -136t-56 -135.5t-135.5 -56t-136 56t-56.5 135.5t56.5 136t136 56.5zM213 21q62 0 106 44t44 106t-44 105.5t-106 43.5
t-105.5 -43.5t-43.5 -105.5t43.5 -106t105.5 -44z" />
    <glyph glyph-name="album" unicode="album" 
d="M213.5 405q88.5 0 151 -62.5t62.5 -150.5t-62.5 -150.5t-151 -62.5t-151 62.5t-62.5 150.5t62.5 150.5t151 62.5zM213 96q40 0 68 28t28 68t-28 68t-68 28t-68 -28t-28 -68t28 -68t68 -28zM213.5 213q8.5 0 15 -6t6.5 -15t-6.5 -15t-15 -6t-15 6t-6.5 15t6.5 15t15 6z
" />
    <glyph glyph-name="all_inclusive" unicode="all_inclusive" horiz-adv-x="512" 
d="M397 307q48 0 81.5 -33.5t33.5 -81t-34 -81.5t-81.5 -34t-81.5 34l-27 24l32 28l25 -21q22 -22 52 -22t51 21t21 51t-21 51t-51 21t-51 -21l-58 -51l-32 -29l-60 -53q-33 -33 -80.5 -33t-81.5 34t-34 81t34 81t81.5 34t81.5 -34l27 -24l-33 -28l-24 21q-22 22 -52 22
t-51 -21t-21 -51t21 -51t51 -21t51 21l58 51l32 29l60 53q33 33 81 33z" />
    <glyph glyph-name="all_out" unicode="all_out" horiz-adv-x="341" 
d="M256 359h85v-85zM341 103v-85h-85zM85 18h-85v85zM0 274v85h85zM276.5 294q43.5 -44 43.5 -105.5t-43.5 -105.5t-105.5 -44t-106 44t-44 106t44 105.5t106 43.5t105.5 -44zM253 106.5q34 34.5 34 82.5t-34 82t-82 34t-82.5 -34t-34.5 -82t34.5 -82.5t82.5 -34.5t82 34.5z
" />
    <glyph glyph-name="android" unicode="android" 
d="M85 64v213h256v-213q0 -9 -6 -15t-15 -6h-21v-75q0 -13 -9.5 -22.5t-23 -9.5t-22.5 9.5t-9 22.5v75h-43v-75q0 -13 -9.5 -22.5t-22.5 -9.5t-22.5 9.5t-9.5 22.5v75h-21q-9 0 -15.5 6t-6.5 15zM32 277q13 0 22.5 -9t9.5 -23v-149q0 -13 -9.5 -22.5t-22.5 -9.5t-22.5 9.5
t-9.5 22.5v149q0 14 9.5 23t22.5 9zM394.5 277q13.5 0 23 -9t9.5 -23v-149q0 -13 -9.5 -22.5t-23 -9.5t-22.5 9.5t-9 22.5v149q0 14 9 23t22.5 9zM289 402q52 -38 52 -103h-256q0 64 53 103l-28 28q-8 7 -0.5 14.5t15.5 0.5l32 -32q26 14 56 14t57 -14l31 32q8 7 15.5 -0.5
t-0.5 -14.5zM171 341v22h-22v-22h22zM277 341v22h-21v-22h21z" />
    <glyph glyph-name="announcement" unicode="announcement" 
d="M384 405q18 0 30.5 -12.5t12.5 -29.5v-256q0 -18 -12.5 -30.5t-30.5 -12.5h-299l-85 -85v384q0 17 12.5 29.5t30.5 12.5h341zM235 213v128h-43v-128h43zM235 128v43h-43v-43h43z" />
    <glyph glyph-name="apps" unicode="apps" horiz-adv-x="341" 
d="M0 277v86h85v-86h-85zM128 21v86h85v-86h-85zM0 21v86h85v-86h-85zM0 149v86h85v-86h-85zM128 149v86h85v-86h-85zM256 363h85v-86h-85v86zM128 277v86h85v-86h-85zM256 149v86h85v-86h-85zM256 21v86h85v-86h-85z" />
    <glyph glyph-name="archive" unicode="archive" horiz-adv-x="384" 
d="M374 336q10 -11 10 -27v-266q0 -18 -12.5 -30.5t-30.5 -12.5h-298q-18 0 -30.5 12.5t-12.5 30.5v266q0 16 10 27l29 36q10 12 25 12h256q15 0 25 -12zM192 75l117 117h-74v43h-86v-43h-74zM45 341h294l-20 22h-256z" />
    <glyph glyph-name="arrow_back" unicode="arrow_back" horiz-adv-x="341" 
d="M341 213v-42h-259l119 -120l-30 -30l-171 171l171 171l30 -30l-119 -120h259z" />
    <glyph glyph-name="arrow_downward" unicode="arrow_downward" horiz-adv-x="341" 
d="M341 192l-170 -171l-171 171l30 30l119 -119v260h43v-260l119 119z" />
    <glyph glyph-name="arrow_drop_down_circle" unicode="arrow_drop_down_circle" 
d="M213.5 405q88.5 0 151 -62.5t62.5 -150.5t-62.5 -150.5t-151 -62.5t-151 62.5t-62.5 150.5t62.5 150.5t151 62.5zM213 149l86 86h-171z" />
    <glyph glyph-name="arrow_drop_down" unicode="arrow_drop_down" horiz-adv-x="213" 
d="M0 235h213l-106 -107z" />
    <glyph glyph-name="arrow_drop_up" unicode="arrow_drop_up" horiz-adv-x="213" 
d="M0 149l107 107l106 -107h-213z" />
    <glyph glyph-name="arrow_forward" unicode="arrow_forward" horiz-adv-x="341" 
d="M171 363l170 -171l-170 -171l-30 30l119 120h-260v42h260l-119 120z" />
    <glyph glyph-name="arrow_upward" unicode="arrow_upward" horiz-adv-x="341" 
d="M0 192l171 171l170 -171l-30 -30l-119 119v-260h-43v260l-119 -119z" />
    <glyph glyph-name="art_track" unicode="art_track" 
d="M427 171h-171v42h171v-42zM427 299v-43h-171v43h171zM256 85v43h171v-43h-171zM213 256v-128q0 -18 -12.5 -30.5t-29.5 -12.5h-128q-18 0 -30.5 12.5t-12.5 30.5v128q0 18 12.5 30.5t30.5 12.5h128q17 0 29.5 -12.5t12.5 -30.5zM181 128l-48 64l-37 -48l-27 32l-37 -48
h149z" />
    <glyph glyph-name="aspect_ratio" unicode="aspect_ratio" horiz-adv-x="469" 
d="M384 192v-107h-107v43h64v64h43zM128 256v-64h-43v107h107v-43h-64zM427 384q17 0 29.5 -12.5t12.5 -30.5v-298q0 -18 -12.5 -30.5t-29.5 -12.5h-384q-18 0 -30.5 12.5t-12.5 30.5v298q0 18 12.5 30.5t30.5 12.5h384zM427 42v300h-384v-300h384z" />
    <glyph glyph-name="assessment" unicode="assessment" horiz-adv-x="384" 
d="M341 384q18 0 30.5 -12.5t12.5 -30.5v-298q0 -18 -12.5 -30.5t-30.5 -12.5h-298q-18 0 -30.5 12.5t-12.5 30.5v298q0 18 12.5 30.5t30.5 12.5h298zM128 85v150h-43v-150h43zM213 85v214h-42v-214h42zM299 85v86h-43v-86h43z" />
    <glyph glyph-name="assignment_ind" unicode="assignment_ind" horiz-adv-x="384" 
d="M341 384q18 0 30.5 -12.5t12.5 -30.5v-298q0 -18 -12.5 -30.5t-30.5 -12.5h-298q-18 0 -30.5 12.5t-12.5 30.5v298q0 18 12.5 30.5t30.5 12.5h89q7 19 23.5 31t36.5 12t36.5 -12t23.5 -31h89zM192 384q-9 0 -15 -6.5t-6 -15t6 -15t15 -6.5t15 6.5t6 15t-6 15t-15 6.5z
M192 299q-27 0 -45.5 -19t-18.5 -45.5t18.5 -45t45.5 -18.5t45.5 18.5t18.5 45t-18.5 45.5t-45.5 19zM320 43v30q0 19 -23.5 35t-52.5 23.5t-52 7.5t-52 -7.5t-52.5 -23.5t-23.5 -35v-30h256z" />
    <glyph glyph-name="assignment_late" unicode="assignment_late" horiz-adv-x="384" 
d="M341 384q18 0 30.5 -12.5t12.5 -30.5v-298q0 -18 -12.5 -30.5t-30.5 -12.5h-298q-18 0 -30.5 12.5t-12.5 30.5v298q0 18 12.5 30.5t30.5 12.5h89q7 19 23.5 31t36.5 12t36.5 -12t23.5 -31h89zM213 64v43h-42v-43h42zM213 149v128h-42v-128h42zM192 341q9 0 15 6.5t6 15
t-6 15t-15 6.5t-15 -6.5t-6 -15t6 -15t15 -6.5z" />
    <glyph glyph-name="assignment_return" unicode="assignment_return" horiz-adv-x="384" 
d="M341 384q18 0 30.5 -12.5t12.5 -30.5v-298q0 -18 -12.5 -30.5t-30.5 -12.5h-298q-18 0 -30.5 12.5t-12.5 30.5v298q0 18 12.5 30.5t30.5 12.5h89q7 19 23.5 31t36.5 12t36.5 -12t23.5 -31h89zM192 384q-9 0 -15 -6.5t-6 -15t6 -15t15 -6.5t15 6.5t6 15t-6 15t-15 6.5z
M277 128v85h-85v64l-107 -106l107 -107v64h85z" />
    <glyph glyph-name="assignment_returned" unicode="assignment_returned" horiz-adv-x="384" 
d="M341 384q18 0 30.5 -12.5t12.5 -30.5v-298q0 -18 -12.5 -30.5t-30.5 -12.5h-298q-18 0 -30.5 12.5t-12.5 30.5v298q0 18 12.5 30.5t30.5 12.5h89q7 19 23.5 31t36.5 12t36.5 -12t23.5 -31h89zM192 384q-9 0 -15 -6.5t-6 -15t6 -15t15 -6.5t15 6.5t6 15t-6 15t-15 6.5z
M192 64l107 107h-64v85h-86v-85h-64z" />
    <glyph glyph-name="assignment_turned_in" unicode="assignment_turned_in" horiz-adv-x="384" 
d="M341 384q18 0 30.5 -12.5t12.5 -30.5v-298q0 -18 -12.5 -30.5t-30.5 -12.5h-298q-18 0 -30.5 12.5t-12.5 30.5v298q0 18 12.5 30.5t30.5 12.5h89q7 19 23.5 31t36.5 12t36.5 -12t23.5 -31h89zM192 384q-9 0 -15 -6.5t-6 -15t6 -15t15 -6.5t15 6.5t6 15t-6 15t-15 6.5z
M149 85l171 171l-30 30l-141 -140l-55 55l-30 -30z" />
    <glyph glyph-name="assignment" unicode="assignment" horiz-adv-x="384" 
d="M341 384q18 0 30.5 -12.5t12.5 -30.5v-298q0 -18 -12.5 -30.5t-30.5 -12.5h-298q-18 0 -30.5 12.5t-12.5 30.5v298q0 18 12.5 30.5t30.5 12.5h89q7 19 23.5 31t36.5 12t36.5 -12t23.5 -31h89zM192 384q-9 0 -15 -6.5t-6 -15t6 -15t15 -6.5t15 6.5t6 15t-6 15t-15 6.5z
M235 85v43h-150v-43h150zM299 171v42h-214v-42h214zM299 256v43h-214v-43h214z" />
    <glyph glyph-name="assistant_photo" unicode="assistant_photo" horiz-adv-x="320" 
d="M201 320h119v-213h-149l-9 42h-119v-149h-43v363h192z" />
    <glyph glyph-name="assistant" unicode="assistant" horiz-adv-x="384" 
d="M341 405q18 0 30.5 -12.5t12.5 -29.5v-299q0 -18 -12.5 -30.5t-30.5 -12.5h-85l-64 -64l-64 64h-85q-18 0 -30.5 12.5t-12.5 30.5v299q0 8 3.5 16t9 14t13.5 9t17 3h298zM232 173l88 40l-88 40l-40 88l-40 -88l-88 -40l88 -40l40 -88z" />
    <glyph glyph-name="attach_file" unicode="attach_file" horiz-adv-x="235" 
d="M203 320h32v-245q0 -49 -34.5 -83.5t-83 -34.5t-83 34.5t-34.5 83.5v266q0 36 25 61t60.5 25t60.5 -25t25 -61v-224q0 -22 -16 -37.5t-38 -15.5t-37.5 15.5t-15.5 37.5v203h32v-203q0 -8 6.5 -14.5t15 -6.5t15 6.5t6.5 14.5v224q0 22 -16 38t-38 16t-37.5 -16t-15.5 -38
v-266q0 -36 25 -61t60.5 -25t60.5 25t25 61v245z" />
    <glyph glyph-name="attach_money" unicode="attach_money" horiz-adv-x="217" 
d="M117 215q46 -11 73 -32t27 -61q0 -32 -20.5 -51t-53.5 -25v-46h-64v46q-34 7 -55.5 28t-23.5 54h47q4 -45 64 -45q31 0 44 12t13 26q0 17 -13.5 30t-50.5 22q-100 24 -100 88q0 29 21 49.5t54 27.5v46h64v-47q32 -8 49.5 -30t18.5 -51h-47q-2 45 -53 45q-27 0 -42.5 -11
t-15.5 -29q0 -15 14 -25.5t50 -20.5z" />
    <glyph glyph-name="attachment" unicode="attachment" 
d="M0 181q0 32 15.5 59t42.5 43t59 16h224q36 0 61 -25t25 -60.5t-25 -60.5t-61 -25h-181q-22 0 -37.5 15.5t-15.5 37.5t15.5 38t37.5 16h160v-43h-162q-9 0 -9 -10.5t9 -10.5h183q18 0 30.5 12.5t12.5 30t-12.5 30t-30.5 12.5h-224q-31 0 -52.5 -22t-21.5 -53t21.5 -52.5
t52.5 -21.5h203v-43h-203q-48 0 -82.5 34.5t-34.5 82.5z" />
    <glyph glyph-name="audiotrack" unicode="audiotrack" horiz-adv-x="277" 
d="M128 384h149v-64h-85v-235h-1q-4 -36 -31 -60.5t-64 -24.5q-40 0 -68 28t-28 68t28 68t68 28q15 0 32 -6v198z" />
    <glyph glyph-name="autorenew" unicode="autorenew" horiz-adv-x="341" 
d="M171 320q-53 0 -90.5 -37.5t-37.5 -90.5q0 -32 15 -60l-32 -31q-26 42 -26 91q0 71 50 121t121 50v64l85 -86l-85 -85v64zM315 283q26 -42 26 -91q0 -71 -50 -121t-120 -50v-64l-86 86l86 85v-64q53 0 90.5 37.5t37.5 90.5q0 31 -15 60z" />
    <glyph glyph-name="av_timer" unicode="av_timer" horiz-adv-x="384" 
d="M171 85.5q0 8.5 6 15t15 6.5t15 -6.5t6 -15t-6 -15t-15 -6.5t-15 6.5t-6 15zM171 384h21q80 0 136 -56t56 -136t-56 -136t-136 -56t-136 56t-56 136q0 46 20.5 86.5t56.5 66.5v1l145 -145l-30 -30l-116 115q-33 -41 -33 -94q0 -62 43.5 -105.5t105.5 -43.5t105.5 43.5
t43.5 105.5q0 56 -36.5 98t-91.5 50v-41h-42v85zM320 192q0 -9 -6.5 -15t-15 -6t-15 6t-6.5 15t6.5 15t15 6t15 -6t6.5 -15zM64 192q0 9 6.5 15t15 6t15 -6t6.5 -15t-6.5 -15t-15 -6t-15 6t-6.5 15z" />
    <glyph glyph-name="backspace" unicode="backspace" horiz-adv-x="512" 
d="M469 384q18 0 30.5 -12.5t12.5 -30.5v-298q0 -18 -12.5 -30.5t-30.5 -12.5h-320q-21 0 -34 19l-115 173l115 173q13 19 34 19h320zM405 115l-76 77l76 77l-30 30l-76 -77l-77 77l-30 -30l77 -77l-77 -77l30 -30l77 77l76 -77z" />
    <glyph glyph-name="backup" unicode="backup" horiz-adv-x="512" 
d="M413 234q42 -3 70.5 -33.5t28.5 -72.5q0 -44 -31.5 -75.5t-75.5 -31.5h-277q-53 0 -90.5 37.5t-37.5 90.5q0 50 33 86t81 41q20 40 58 63.5t84 23.5q38 0 71.5 -17t56 -46.5t29.5 -65.5zM299 171h64l-107 106l-107 -106h64v-86h86v86z" />
    <glyph glyph-name="battery_20" unicode="battery_&#x32;&#x30;" horiz-adv-x="213" 
d="M0 85h213v-78q0 -12 -8 -20t-20 -8h-157q-11 0 -19.5 8t-8.5 20v78zM213 334v-249h-213v249q0 12 8.5 20.5t19.5 8.5h36v42h85v-42h36q12 0 20 -8.5t8 -20.5z" />
    <glyph glyph-name="battery_30" unicode="battery_&#x33;&#x30;" horiz-adv-x="213" 
d="M213 334v-206h-213v206q0 12 8.5 20.5t19.5 8.5h36v42h85v-42h36q12 0 20 -8.5t8 -20.5zM0 128h213v-121q0 -12 -8 -20t-20 -8h-157q-11 0 -19.5 8t-8.5 20v121z" />
    <glyph glyph-name="battery_50" unicode="battery_&#x35;&#x30;" horiz-adv-x="213" 
d="M213 334v-163h-213v163q0 12 8.5 20.5t19.5 8.5h36v42h85v-42h36q12 0 20 -8.5t8 -20.5zM0 171h213v-164q0 -12 -8 -20t-20 -8h-157q-11 0 -19.5 8t-8.5 20v164z" />
    <glyph glyph-name="battery_60" unicode="battery_&#x36;&#x30;" horiz-adv-x="213" 
d="M213 334v-121h-213v121q0 12 8.5 20.5t19.5 8.5h36v42h85v-42h36q12 0 20 -8.5t8 -20.5zM0 213h213v-206q0 -12 -8 -20t-20 -8h-157q-11 0 -19.5 8t-8.5 20v206z" />
    <glyph glyph-name="battery_80" unicode="battery_&#x38;&#x30;" horiz-adv-x="213" 
d="M213 334v-78h-213v78q0 12 8.5 20.5t19.5 8.5h36v42h85v-42h36q12 0 20 -8.5t8 -20.5zM0 256h213v-249q0 -12 -8 -20t-20 -8h-157q-11 0 -19.5 8t-8.5 20v249z" />
    <glyph glyph-name="battery_90" unicode="battery_&#x39;&#x30;" horiz-adv-x="213" 
d="M213 334v-57h-213v57q0 12 8.5 20.5t19.5 8.5h36v42h85v-42h36q12 0 20 -8.5t8 -20.5zM0 277h213v-270q0 -12 -8 -20t-20 -8h-157q-11 0 -19.5 8t-8.5 20v270z" />
    <glyph glyph-name="battery_alert" unicode="battery_alert" horiz-adv-x="213" 
d="M185 363q12 0 20 -8.5t8 -20.5v-327q0 -12 -8 -20t-20 -8h-157q-11 0 -19.5 8t-8.5 20v327q0 12 8.5 20.5t19.5 8.5h36v42h85v-42h36zM128 64v43h-43v-43h43zM128 149v107h-43v-107h43z" />
    <glyph glyph-name="battery_charging_20" unicode="battery_charging_&#x32;&#x30;" horiz-adv-x="213" 
d="M85 21l34 64h94v-78q0 -12 -8 -20t-20 -8h-157q-11 0 -19.5 8t-8.5 20v78h85v-64zM185 363q12 0 20 -8.5t8 -20.5v-249h-94l52 96h-43v118l-85 -160h42v-54h-85v249q0 12 8.5 20.5t19.5 8.5h36v42h85v-42h36z" />
    <glyph glyph-name="battery_charging_30" unicode="battery_charging_&#x33;&#x30;" horiz-adv-x="213" 
d="M185 363q12 0 20 -8.5t8 -20.5v-195h-65l23 42h-43v118l-85 -160h-43v195q0 12 8.5 20.5t19.5 8.5h36v42h85v-42h36zM85 21l63 118h65v-132q0 -12 -8 -20t-20 -8h-157q-11 0 -19.5 8t-8.5 20v132h85v-118z" />
    <glyph glyph-name="battery_charging_50" unicode="battery_charging_&#x35;&#x30;" horiz-adv-x="213" 
d="M159 160h54v-153q0 -12 -8 -20t-20 -8h-157q-11 0 -19.5 8t-8.5 20v153h54l-11 -21h42v-118zM185 363q12 0 20 -8.5t8 -20.5v-174h-54l12 21h-43v118l-74 -139h-54v174q0 12 8.5 20.5t19.5 8.5h36v42h85v-42h36z" />
    <glyph glyph-name="battery_charging_60" unicode="battery_charging_&#x36;&#x30;" horiz-adv-x="213" 
d="M185 363q12 0 20 -8.5t8 -20.5v-121h-85v86l-45 -86h-83v121q0 12 8.5 20.5t19.5 8.5h36v42h85v-42h36zM128 181v32h85v-206q0 -12 -8 -20t-20 -8h-157q-11 0 -19.5 8t-8.5 20v206h83l-40 -74h42v-118l86 160h-43z" />
    <glyph glyph-name="battery_charging_80" unicode="battery_charging_&#x38;&#x30;" horiz-adv-x="213" 
d="M185 363q12 0 20 -8.5t8 -20.5v-78h-85v43l-23 -43h-105v78q0 12 8.5 20.5t19.5 8.5h36v42h85v-42h36zM128 181v75h85v-249q0 -12 -8 -20t-20 -8h-157q-11 0 -19.5 8t-8.5 20v249h105l-62 -117h42v-118l86 160h-43z" />
    <glyph glyph-name="battery_charging_90" unicode="battery_charging_&#x39;&#x30;" horiz-adv-x="213" 
d="M185 363q12 0 20 -8.5t8 -20.5v-57h-85v22l-11 -22h-117v57q0 12 8.5 20.5t19.5 8.5h36v42h85v-42h36zM128 181v96h85v-270q0 -12 -8 -20t-20 -8h-157q-11 0 -19.5 8t-8.5 20v270h117l-74 -138h42v-118l86 160h-43z" />
    <glyph glyph-name="battery_charging_full" unicode="battery_charging_full" horiz-adv-x="213" 
d="M185 363q12 0 20 -8.5t8 -20.5v-327q0 -12 -8 -20t-20 -8h-157q-11 0 -19.5 8t-8.5 20v327q0 12 8.5 20.5t19.5 8.5h36v42h85v-42h36zM85 21l86 160h-43v118l-85 -160h42v-118z" />
    <glyph glyph-name="battery_full" unicode="battery_full" horiz-adv-x="213" 
d="M185 363q12 0 20 -8.5t8 -20.5v-327q0 -12 -8 -20t-20 -8h-157q-11 0 -19.5 8t-8.5 20v327q0 12 8.5 20.5t19.5 8.5h36v42h85v-42h36z" />
    <glyph glyph-name="battery_std" unicode="battery_std" horiz-adv-x="213" 
d="M185 363q12 0 20 -8.5t8 -20.5v-327q0 -12 -8 -20t-20 -8h-157q-11 0 -19.5 8t-8.5 20v327q0 12 8.5 20.5t19.5 8.5h36v42h85v-42h36z" />
    <glyph glyph-name="battery_unknown" unicode="battery_unknown" horiz-adv-x="213" 
d="M185 363q12 0 20 -8.5t8 -20.5v-327q0 -12 -8 -20t-20 -8h-157q-11 0 -19.5 8t-8.5 20v327q0 12 8.5 20.5t19.5 8.5h36v42h85v-42h36zM127 65v41h-41v-41h41zM156 177q15 15 15 36q0 27 -19 45.5t-45.5 18.5t-45 -18.5t-18.5 -45.5h32q0 14 9 23t22.5 9t23 -9t9.5 -22.5
t-10 -22.5l-20 -20q-19 -21 -19 -43h34q0 16 17 34z" />
    <glyph glyph-name="beach_access" unicode="beach_access" horiz-adv-x="384" 
d="M216 137l31 31l137 -138l-31 -30zM308 260q-50 49 -116 65.5t-128 -4.5q63 63 152 63t153 -63zM63 320q-21 -62 -4.5 -128t65.5 -116l-61 -61q-63 64 -63 153t63 152zM63 321q33 4 69.5 -5.5t74 -31.5t70.5 -55l-122 -122q-49 49 -73.5 107t-18.5 107z" />
    <glyph glyph-name="beenhere" unicode="beenhere" horiz-adv-x="384" 
d="M341 427q18 0 30.5 -12.5t12.5 -30.5v-276q0 -23 -19 -35l-173 -116l-173 116q-19 12 -19 35v276q0 18 12.5 30.5t30.5 12.5h298zM149 107l192 192l-30 30l-162 -162l-76 76l-30 -30z" />
    <glyph glyph-name="block" unicode="block" 
d="M213.5 405q88.5 0 151 -62.5t62.5 -150.5t-62.5 -150.5t-151 -62.5t-151 62.5t-62.5 150.5t62.5 150.5t151 62.5zM43 192q0 -59 36 -105l239 240q-46 36 -105 36q-70 0 -120 -50t-50 -121zM213 21q71 0 121 50t50 121q0 59 -36 105l-239 -240q46 -36 104 -36z" />
    <glyph glyph-name="bluetooth_audio" unicode="bluetooth_audio" horiz-adv-x="384" 
d="M240 192l49 49q10 -24 10 -49q0 -26 -10 -50zM353 305q31 -51 31 -111q0 -61 -33 -113l-25 25q21 41 21 86q0 46 -21 86zM271 284l-92 -92l92 -92l-122 -121h-21v162l-98 -98l-30 30l119 119l-119 119l30 30l98 -98v162h21zM171 324v-81l40 41zM211 100l-40 41v-81z" />
    <glyph glyph-name="bluetooth_connected" unicode="bluetooth_connected" horiz-adv-x="384" 
d="M85 192l-42 -43l-43 43l43 43zM314 284l-92 -92l92 -92l-122 -121h-21v162l-98 -98l-30 30l119 119l-119 119l30 30l98 -98v162h21zM213 324v-81l40 41zM253 100l-40 41v-81zM341 235l43 -43l-43 -43l-42 43z" />
    <glyph glyph-name="bluetooth_disabled" unicode="bluetooth_disabled" horiz-adv-x="341" 
d="M192 324v-69l-43 43v107h22l121 -121l-64 -65l-30 30l34 35zM30 363l311 -312l-30 -30l-49 49l-91 -91h-22v162l-98 -98l-30 30l120 119l-141 141zM192 60l40 40l-40 41v-81z" />
    <glyph glyph-name="bluetooth_searching" unicode="bluetooth_searching" horiz-adv-x="384" 
d="M240 192l49 49q10 -24 10 -49q0 -26 -10 -50zM353 305q31 -51 31 -111q0 -61 -33 -113l-25 25q21 41 21 86q0 46 -21 86zM271 284l-92 -92l92 -92l-122 -121h-21v162l-98 -98l-30 30l119 119l-119 119l30 30l98 -98v162h21zM171 324v-81l40 41zM211 100l-40 41v-81z" />
    <glyph glyph-name="bluetooth" unicode="bluetooth" horiz-adv-x="271" 
d="M271 284l-92 -92l92 -92l-122 -121h-21v162l-98 -98l-30 30l119 119l-119 119l30 30l98 -98v162h21zM171 324v-81l40 41zM211 100l-40 41v-81z" />
    <glyph glyph-name="blur_circular" unicode="blur_circular" 
d="M171 256q5 0 10 -3t8 -8t3 -10q0 -9 -6.5 -15.5t-15 -6.5t-15 6.5t-6.5 15t6.5 15t15.5 6.5zM171 171q8 0 14.5 -6.5t6.5 -15t-6.5 -15t-15 -6.5t-15 6.5t-6.5 14.5q0 6 3 11t8 8t11 3zM106.5 245q10.5 0 10.5 -10.5t-10.5 -10.5t-10.5 10.5t10.5 10.5zM170.5 96
q10.5 0 10.5 -10.5t-10.5 -10.5t-10.5 10.5t10.5 10.5zM106.5 160q10.5 0 10.5 -10.5t-10.5 -10.5t-10.5 10.5t10.5 10.5zM170.5 288q-10.5 0 -10.5 10.5t10.5 10.5t10.5 -10.5t-10.5 -10.5zM256 256q9 0 15 -6.5t6 -14.5q0 -6 -2.5 -11t-7.5 -8t-11 -3q-9 0 -15 6.5t-6 15
t6 15t15 6.5zM256 288q-11 0 -11 10.5t11 10.5t11 -10.5t-11 -10.5zM320 160q11 0 11 -10.5t-11 -10.5t-11 10.5t11 10.5zM320 245q11 0 11 -10.5t-11 -10.5t-11 10.5t11 10.5zM213.5 405q88.5 0 151 -62.5t62.5 -150.5t-62.5 -150.5t-151 -62.5t-151 62.5t-62.5 150.5
t62.5 150.5t151 62.5zM213.5 21q70.5 0 120.5 50t50 121t-50 121t-120.5 50t-120.5 -50t-50 -121t50 -121t120.5 -50zM256 96q11 0 11 -10.5t-11 -10.5t-11 10.5t11 10.5zM256 171q9 0 15 -6.5t6 -15t-6 -15t-15 -6.5q-6 0 -11 3t-7.5 8t-2.5 10q0 9 6 15.5t15 6.5z" />
    <glyph glyph-name="blur_linear" unicode="blur_linear" horiz-adv-x="384" 
d="M42.5 75q-13.5 0 -22.5 9t-9 22.5t9 23t22.5 9.5t23 -9.5t9.5 -23t-9.5 -22.5t-23 -9zM128 171q-9 0 -15 6t-6 15t6 15t15 6t15 -6t6 -15t-6 -15t-15 -6zM128 256q-9 0 -15 6.5t-6 15t6 15t15 6.5t15 -6.5t6 -15t-6 -15t-15 -6.5zM0 0v43h384v-43h-384zM42.5 245
q-13.5 0 -22.5 9.5t-9 23t9 22.5t22.5 9t23 -9t9.5 -22.5t-9.5 -23t-23 -9.5zM42.5 160q-13.5 0 -22.5 9.5t-9 22.5t9 22.5t22.5 9.5t23 -9.5t9.5 -22.5t-9.5 -22.5t-23 -9.5zM128 85q-9 0 -15 6.5t-6 15t6 15t15 6.5t15 -6.5t6 -15t-6 -15t-15 -6.5zM298.5 96
q-10.5 0 -10.5 10.5t10.5 10.5t10.5 -10.5t-10.5 -10.5zM0 384h384v-43h-384v43zM298.5 267q-10.5 0 -10.5 10.5t10.5 10.5t10.5 -10.5t-10.5 -10.5zM298.5 181q-10.5 0 -10.5 11t10.5 11t10.5 -11t-10.5 -11zM213.5 256q-8.5 0 -15 6.5t-6.5 15t6.5 15t15 6.5t15 -6.5
t6.5 -15t-6.5 -15t-15 -6.5zM213.5 171q-8.5 0 -15 6t-6.5 15t6.5 15t14.5 6q6 0 11 -2.5t8 -7.5t3 -11q0 -9 -6.5 -15t-15 -6zM213.5 85q-8.5 0 -15 6.5t-6.5 15t6.5 15t14.5 6.5q6 0 11 -3t8 -8t3 -10q0 -9 -6.5 -15.5t-15 -6.5z" />
    <glyph glyph-name="blur_off" unicode="blur_off" horiz-adv-x="405" 
d="M245.5 299q-8.5 0 -15 6t-6.5 15t6.5 15t15 6t15 -6t6.5 -15t-6.5 -15t-15 -6zM241 203q-11 2 -18.5 9.5t-8.5 17.5l-1 5q0 13 9.5 22.5t23 9.5t22.5 -9.5t9 -23t-9 -22.5t-23 -9h-4zM245.5 373q-10.5 0 -10.5 11t10.5 11t10.5 -11t-10.5 -11zM160 373q-11 0 -11 11
t11 11t11 -11t-11 -11zM394.5 224q-10.5 0 -10.5 10.5t10.5 10.5t10.5 -10.5t-10.5 -10.5zM160 299q-9 0 -15 6t-6 15t6 15t15 6q6 0 11 -2.5t7.5 -7.5t2.5 -11q0 -9 -6 -15t-15 -6zM330.5 128q-8.5 0 -15 6.5t-6.5 14.5q0 6 3 11t8 8t11 3q8 0 14.5 -6.5t6.5 -15t-6.5 -15
t-15 -6.5zM331 213q-9 0 -15.5 6.5t-6.5 15t6.5 15t15 6.5t15 -6.5t6.5 -14.5q0 -6 -3 -11t-8 -8t-10 -3zM330.5 299q-8.5 0 -15 6t-6.5 15t6.5 15t15 6t15 -6t6.5 -15t-6.5 -15t-15 -6zM245.5 11q10.5 0 10.5 -11t-10.5 -11t-10.5 11t10.5 11zM0 336l27 27l346 -347
l-27 -27l-81 81q2 -4 2 -6q0 -9 -6.5 -15t-15 -6t-15 6t-6.5 15t6.5 15t14.5 6q2 0 6 -1l-60 60q-1 -11 -10 -19t-21 -8q-13 0 -22.5 9.5t-9.5 22.5q0 8 3.5 15t9.5 11.5t14 5.5l-60 60q1 -4 1 -6q0 -6 -3 -11t-8 -8t-10 -3q-9 0 -15.5 6.5t-6.5 15t6.5 15t15.5 6.5l6 -1z
M160 85q6 0 11 -2.5t7.5 -7.5t2.5 -11q0 -9 -6 -15t-15 -6t-15 6t-6 15t6 15t15 6zM394.5 160q10.5 0 10.5 -10.5t-10.5 -10.5t-10.5 10.5t10.5 10.5zM75 171q8 0 14.5 -6.5t6.5 -15t-6.5 -15t-15 -6.5t-15 6.5t-6.5 14.5q0 6 3 11t8 8t11 3zM10.5 245q10.5 0 10.5 -10.5
t-10.5 -10.5t-10.5 10.5t10.5 10.5zM160 11q11 0 11 -11t-11 -11t-11 11t11 11zM74.5 85q8.5 0 15 -6t6.5 -15t-6.5 -15t-15 -6t-15 6t-6.5 15t6.5 15t15 6zM10.5 160q10.5 0 10.5 -10.5t-10.5 -10.5t-10.5 10.5t10.5 10.5z" />
    <glyph glyph-name="blur_on" unicode="blur_on" horiz-adv-x="405" 
d="M75 171q8 0 14.5 -6.5t6.5 -15t-6.5 -15t-15 -6.5t-15 6.5t-6.5 14.5q0 6 3 11t8 8t11 3zM74.5 85q8.5 0 15 -6t6.5 -15t-6.5 -15t-15 -6t-15 6t-6.5 15t6.5 15t15 6zM74.5 256q8.5 0 15 -6.5t6.5 -14.5q0 -6 -3 -11t-8 -8t-10 -3q-9 0 -15.5 6.5t-6.5 15t6.5 15t15 6.5z
M10.5 245q10.5 0 10.5 -10.5t-10.5 -10.5t-10.5 10.5t10.5 10.5zM74.5 341q8.5 0 15 -6t6.5 -15t-6.5 -15t-15 -6t-15 6t-6.5 15t6.5 15t15 6zM394.5 224q-10.5 0 -10.5 10.5t10.5 10.5t10.5 -10.5t-10.5 -10.5zM245.5 299q-8.5 0 -15 6t-6.5 15t6.5 15t15 6t15 -6t6.5 -15
t-6.5 -15t-15 -6zM245.5 373q-10.5 0 -10.5 11t10.5 11t10.5 -11t-10.5 -11zM10.5 160q10.5 0 10.5 -10.5t-10.5 -10.5t-10.5 10.5t10.5 10.5zM160 11q11 0 11 -11t-11 -11t-11 11t11 11zM160 373q-11 0 -11 11t11 11t11 -11t-11 -11zM160 299q-9 0 -15 6t-6 15t6 15t15 6
q6 0 11 -2.5t7.5 -7.5t2.5 -11q0 -9 -6 -15t-15 -6zM160 181q13 0 22.5 -9t9.5 -22.5t-9.5 -23t-22.5 -9.5t-22.5 9.5t-9.5 23t9.5 22.5t22.5 9zM331 171q8 0 14.5 -6.5t6.5 -15t-6.5 -15t-15 -6.5t-15 6.5t-6.5 14.5q0 6 3 11t8 8t11 3zM330.5 85q8.5 0 15 -6t6.5 -15
t-6.5 -15t-15 -6t-15 6t-6.5 15t6.5 15t15 6zM330.5 256q8.5 0 15 -6.5t6.5 -14.5q0 -6 -3 -11t-8 -8t-10 -3q-9 0 -15.5 6.5t-6.5 15t6.5 15t15 6.5zM330.5 341q8.5 0 15 -6t6.5 -15t-6.5 -15t-15 -6t-15 6t-6.5 15t6.5 15t15 6zM394.5 160q10.5 0 10.5 -10.5t-10.5 -10.5
t-10.5 10.5t10.5 10.5zM245.5 85q8.5 0 15 -6t6.5 -15t-6.5 -15t-15 -6t-15 6t-6.5 15t6.5 15t15 6zM245.5 11q10.5 0 10.5 -11t-10.5 -11t-10.5 11t10.5 11zM160 267q13 0 22.5 -9.5t9.5 -23t-9.5 -22.5t-22.5 -9t-22.5 9t-9.5 22.5t9.5 23t22.5 9.5zM160 85q6 0 11 -2.5
t7.5 -7.5t2.5 -11q0 -9 -6 -15t-15 -6t-15 6t-6 15t6 15t15 6zM245.5 181q13.5 0 22.5 -9t9 -22.5t-9 -23t-22.5 -9.5t-23 9.5t-9.5 23t9.5 22.5t23 9zM245.5 267q13.5 0 22.5 -9.5t9 -23t-9 -22.5t-22.5 -9t-23 9t-9.5 22.5t9.5 23t23 9.5z" />
    <glyph glyph-name="book" unicode="book" horiz-adv-x="341" 
d="M299 405q17 0 29.5 -12.5t12.5 -29.5v-342q0 -17 -12.5 -29.5t-29.5 -12.5h-256q-18 0 -30.5 12.5t-12.5 29.5v342q0 8 3.5 16t9 14t13.5 9t17 3h256zM43 363v-171l53 32l53 -32v171h-106z" />
    <glyph glyph-name="bookmark_border" unicode="bookmark_border" horiz-adv-x="299" 
d="M256 384q9 0 16.5 -3.5t13.5 -9t9.5 -13.5t3.5 -17v-341l-150 64l-149 -64v341q0 18 12.5 30.5t30.5 12.5h213zM256 64v277h-213v-277l106 47z" />
    <glyph glyph-name="bookmark" unicode="bookmark" horiz-adv-x="299" 
d="M256 384q9 0 16.5 -3.5t13.5 -9t9.5 -13.5t3.5 -17v-341l-150 64l-149 -64v341q0 18 12.5 30.5t30.5 12.5h213z" />
    <glyph glyph-name="border_all" unicode="border_all" horiz-adv-x="384" 
d="M0 384h384v-384h-384v384zM171 43v128h-128v-128h128zM171 213v128h-128v-128h128zM341 43v128h-128v-128h128zM341 213v128h-128v-128h128z" />
    <glyph glyph-name="border_bottom" unicode="border_bottom" horiz-adv-x="384" 
d="M128 213v-42h-43v42h43zM213 128v-43h-42v43h42zM128 384v-43h-43v43h43zM213 213v-42h-42v42h42zM43 384v-43h-43v43h43zM213 299v-43h-42v43h42zM299 213v-42h-43v42h43zM213 384v-43h-42v43h42zM299 384v-43h-43v43h43zM341 171v42h43v-42h-43zM341 85v43h43v-43h-43z
M43 299v-43h-43v43h43zM341 384h43v-43h-43v43zM341 256v43h43v-43h-43zM43 213v-42h-43v42h43zM0 0v43h384v-43h-384zM43 128v-43h-43v43h43z" />
    <glyph glyph-name="border_clear" unicode="border_clear" horiz-adv-x="384" 
d="M85 341v43h43v-43h-43zM85 171v42h43v-42h-43zM85 0v43h43v-43h-43zM171 85v43h42v-43h-42zM171 0v43h42v-43h-42zM0 0v43h43v-43h-43zM0 85v43h43v-43h-43zM0 171v42h43v-42h-43zM0 256v43h43v-43h-43zM0 341v43h43v-43h-43zM171 171v42h42v-42h-42zM341 85v43h43v-43
h-43zM341 171v42h43v-42h-43zM341 0v43h43v-43h-43zM341 256v43h43v-43h-43zM171 256v43h42v-43h-42zM341 384h43v-43h-43v43zM171 341v43h42v-43h-42zM256 0v43h43v-43h-43zM256 171v42h43v-42h-43zM256 341v43h43v-43h-43z" />
    <glyph glyph-name="border_color" unicode="border_color" horiz-adv-x="512" 
d="M379 299l-214 -214h-80v80l214 214zM442 362l-42 -42l-80 80l42 42q6 6 15 6t15 -6l50 -50q6 -6 6 -15t-6 -15zM0 21h512v-85h-512v85z" />
    <glyph glyph-name="border_horizontal" unicode="border_horizontal" horiz-adv-x="384" 
d="M0 0v43h43v-43h-43zM43 299v-43h-43v43h43zM0 85v43h43v-43h-43zM85 0v43h43v-43h-43zM43 384v-43h-43v43h43zM128 384v-43h-43v43h43zM299 384v-43h-43v43h43zM213 299v-43h-42v43h42zM213 384v-43h-42v43h42zM341 85v43h43v-43h-43zM171 0v43h42v-43h-42zM0 171v42h384
v-42h-384zM341 384h43v-43h-43v43zM341 256v43h43v-43h-43zM171 85v43h42v-43h-42zM256 0v43h43v-43h-43zM341 0v43h43v-43h-43z" />
    <glyph glyph-name="border_inner" unicode="border_inner" horiz-adv-x="384" 
d="M0 0v43h43v-43h-43zM85 0v43h43v-43h-43zM43 299v-43h-43v43h43zM0 85v43h43v-43h-43zM128 384v-43h-43v43h43zM43 384v-43h-43v43h43zM299 384v-43h-43v43h43zM341 256v43h43v-43h-43zM341 384h43v-43h-43v43zM256 0v43h43v-43h-43zM213 384v-171h171v-42h-171v-171h-42
v171h-171v42h171v171h42zM341 0v43h43v-43h-43zM341 85v43h43v-43h-43z" />
    <glyph glyph-name="border_left" unicode="border_left" horiz-adv-x="384" 
d="M171 0v43h42v-43h-42zM171 85v43h42v-43h-42zM171 341v43h42v-43h-42zM171 256v43h42v-43h-42zM171 171v42h42v-42h-42zM85 0v43h43v-43h-43zM85 341v43h43v-43h-43zM85 171v42h43v-42h-43zM0 0v384h43v-384h-43zM341 256v43h43v-43h-43zM256 0v43h43v-43h-43zM341 85v43
h43v-43h-43zM341 384h43v-43h-43v43zM341 171v42h43v-42h-43zM341 0v43h43v-43h-43zM256 171v42h43v-42h-43zM256 341v43h43v-43h-43z" />
    <glyph glyph-name="border_outer" unicode="border_outer" horiz-adv-x="384" 
d="M213 299v-43h-42v43h42zM213 213v-42h-42v42h42zM299 213v-42h-43v42h43zM0 384h384v-384h-384v384zM341 43v298h-298v-298h298zM213 128v-43h-42v43h42zM128 213v-42h-43v42h43z" />
    <glyph glyph-name="border_right" unicode="border_right" horiz-adv-x="384" 
d="M85 0v43h43v-43h-43zM0 341v43h43v-43h-43zM85 341v43h43v-43h-43zM85 171v42h43v-42h-43zM0 0v43h43v-43h-43zM171 0v43h42v-43h-42zM0 171v42h43v-42h-43zM0 85v43h43v-43h-43zM0 256v43h43v-43h-43zM171 85v43h42v-43h-42zM256 171v42h43v-42h-43zM341 384h43v-384
h-43v384zM256 0v43h43v-43h-43zM256 341v43h43v-43h-43zM171 171v42h42v-42h-42zM171 341v43h42v-43h-42zM171 256v43h42v-43h-42z" />
    <glyph glyph-name="border_style" unicode="border_style" horiz-adv-x="384" 
d="M256 0v43h43v-43h-43zM341 0v43h43v-43h-43zM85 0v43h43v-43h-43zM171 0v43h42v-43h-42zM341 85v43h43v-43h-43zM341 171v42h43v-42h-43zM0 384h384v-43h-341v-341h-43v384zM341 256v43h43v-43h-43z" />
    <glyph glyph-name="border_top" unicode="border_top" horiz-adv-x="384" 
d="M85 0v43h43v-43h-43zM85 171v42h43v-42h-43zM171 171v42h42v-42h-42zM171 0v43h42v-43h-42zM0 85v43h43v-43h-43zM0 0v43h43v-43h-43zM0 171v42h43v-42h-43zM0 256v43h43v-43h-43zM171 85v43h42v-43h-42zM341 256v43h43v-43h-43zM341 171v42h43v-42h-43zM0 384h384v-43
h-384v43zM341 85v43h43v-43h-43zM256 0v43h43v-43h-43zM171 256v43h42v-43h-42zM341 0v43h43v-43h-43zM256 171v42h43v-42h-43z" />
    <glyph glyph-name="border_vertical" unicode="border_vertical" horiz-adv-x="384" 
d="M0 256v43h43v-43h-43zM0 341v43h43v-43h-43zM85 0v43h43v-43h-43zM85 171v42h43v-42h-43zM0 171v42h43v-42h-43zM0 0v43h43v-43h-43zM0 85v43h43v-43h-43zM85 341v43h43v-43h-43zM341 85v43h43v-43h-43zM171 0v384h42v-384h-42zM341 0v43h43v-43h-43zM341 171v42h43v-42
h-43zM341 384h43v-43h-43v43zM341 256v43h43v-43h-43zM256 341v43h43v-43h-43zM256 0v43h43v-43h-43zM256 171v42h43v-42h-43z" />
    <glyph glyph-name="branding_watermark" unicode="branding_watermark" horiz-adv-x="469" 
d="M427 384q17 0 29.5 -12.5t12.5 -30.5v-298q0 -18 -12.5 -30.5t-29.5 -12.5h-384q-18 0 -30.5 12.5t-12.5 30.5v298q0 18 12.5 30.5t30.5 12.5h384zM427 43v128h-192v-128h192z" />
    <glyph glyph-name="brightness_1" unicode="brightness_&#x31;" 
d="M0 192q0 88 62.5 150.5t151 62.5t151 -62.5t62.5 -150.5t-62.5 -150.5t-151 -62.5t-151 62.5t-62.5 150.5z" />
    <glyph glyph-name="brightness_2" unicode="brightness_&#x32;" horiz-adv-x="320" 
d="M107 405q58 0 107 -28.5t77.5 -77.5t28.5 -107q0 -88 -62.5 -150.5t-150.5 -62.5q-57 0 -107 28q32 19 56 47t37.5 63.5t13.5 74.5q0 58 -29 107t-78 78q50 28 107 28z" />
    <glyph glyph-name="brightness_3" unicode="brightness_&#x33;" horiz-adv-x="277" 
d="M64 405q88 0 150.5 -62.5t62.5 -150.5t-62.5 -150.5t-150.5 -62.5q-33 0 -64 9q66 21 107.5 77t41.5 127t-41.5 127t-107.5 77q31 9 64 9z" />
    <glyph glyph-name="brightness_4" unicode="brightness_&#x34;" horiz-adv-x="483" 
d="M412 263l71 -71l-71 -71v-100h-100l-71 -70l-70 70h-100v100l-71 71l71 71v100h100l70 70l71 -70h100v-100zM241 64q53 0 90.5 37.5t37.5 90.5t-37.5 90.5t-90.5 37.5q-28 0 -53 -12q33 -15 54 -46.5t21 -69.5t-21 -69.5t-54 -46.5q25 -12 53 -12z" />
    <glyph glyph-name="brightness_5" unicode="brightness_&#x35;" horiz-adv-x="483" 
d="M412 121v-100h-100l-71 -70l-70 70h-100v100l-71 71l71 71v100h100l70 70l71 -70h100v-100l71 -71zM241 64q53 0 90.5 37.5t37.5 90.5t-37.5 90.5t-90.5 37.5t-90.5 -37.5t-37.5 -90.5t37.5 -90.5t90.5 -37.5z" />
    <glyph glyph-name="brightness_6" unicode="brightness_&#x36;" horiz-adv-x="483" 
d="M412 121v-100h-100l-71 -70l-70 70h-100v100l-71 71l71 71v100h100l70 70l71 -70h100v-100l71 -71zM241 64q53 0 90.5 37.5t37.5 90.5t-37.5 90.5t-90.5 37.5v-256z" />
    <glyph glyph-name="brightness_7" unicode="brightness_&#x37;" horiz-adv-x="483" 
d="M412 263l71 -71l-71 -71v-100h-100l-71 -70l-70 70h-100v100l-71 71l71 71v100h100l70 70l71 -70h100v-100zM241 64q53 0 90.5 37.5t37.5 90.5t-37.5 90.5t-90.5 37.5t-90.5 -37.5t-37.5 -90.5t37.5 -90.5t90.5 -37.5zM241.5 277q35.5 0 60.5 -25t25 -60t-25 -60
t-60.5 -25t-60.5 25t-25 60t25 60t60.5 25z" />
    <glyph glyph-name="brightness_auto" unicode="brightness_auto" horiz-adv-x="483" 
d="M217 178l24 78l25 -78h-49zM412 263l71 -71l-71 -71v-100h-100l-71 -70l-70 70h-100v100l-71 71l71 71v100h100l70 70l71 -70h100v-100zM290 107h41l-68 192h-43l-68 -192h40l15 42h68z" />
    <glyph glyph-name="brightness_high" unicode="brightness_high" horiz-adv-x="483" 
d="M412 263l71 -71l-71 -71v-100h-100l-71 -70l-70 70h-100v100l-71 71l71 71v100h100l70 70l71 -70h100v-100zM241 64q53 0 90.5 37.5t37.5 90.5t-37.5 90.5t-90.5 37.5t-90.5 -37.5t-37.5 -90.5t37.5 -90.5t90.5 -37.5zM241.5 277q35.5 0 60.5 -25t25 -60t-25 -60
t-60.5 -25t-60.5 25t-25 60t25 60t60.5 25z" />
    <glyph glyph-name="brightness_low" unicode="brightness_low" horiz-adv-x="483" 
d="M412 121v-100h-100l-71 -70l-70 70h-100v100l-71 71l71 71v100h100l70 70l71 -70h100v-100l71 -71zM241 64q53 0 90.5 37.5t37.5 90.5t-37.5 90.5t-90.5 37.5t-90.5 -37.5t-37.5 -90.5t37.5 -90.5t90.5 -37.5z" />
    <glyph glyph-name="brightness_medium" unicode="brightness_medium" horiz-adv-x="483" 
d="M412 121v-100h-100l-71 -70l-70 70h-100v100l-71 71l71 71v100h100l70 70l71 -70h100v-100l71 -71zM241 64q53 0 90.5 37.5t37.5 90.5t-37.5 90.5t-90.5 37.5v-256z" />
    <glyph glyph-name="broken_image" unicode="broken_image" horiz-adv-x="384" 
d="M384 341v-140l-64 64l-85 -86l-86 86l-85 -86l-64 65v97q0 18 12.5 30.5t30.5 12.5h298q18 0 30.5 -12.5t12.5 -30.5zM320 204l64 -64v-97q0 -18 -12.5 -30.5t-30.5 -12.5h-298q-18 0 -30.5 12.5t-12.5 30.5v140l64 -64l85 86l86 -86z" />
    <glyph glyph-name="brush" unicode="brush" horiz-adv-x="405" 
d="M106.5 149q26.5 0 45.5 -18.5t19 -45.5q0 -35 -25 -60t-61 -25q-24 0 -47 11.5t-38 31.5q15 0 29 11.5t14 30.5q0 27 18.5 45.5t45 18.5zM399 349q6 -6 6 -15t-6 -15l-191 -191l-59 59l191 191q7 6 15.5 6t15.5 -6z" />
    <glyph glyph-name="bubble_chart" unicode="bubble_chart" horiz-adv-x="341" 
d="M0 141q0 28 20 48t48.5 20t48.5 -20t20 -48t-20 -48t-48.5 -20t-48.5 20t-20 48zM188 64q0 18 12.5 30.5t30 12.5t30 -12.5t12.5 -30.5t-12.5 -30.5t-30 -12.5t-30 12.5t-12.5 30.5zM137 260.5q0 42.5 30 72.5t72 30t72 -30t30 -72.5t-30 -72.5t-72 -30t-72 30t-30 72.5z
" />
    <glyph glyph-name="bug_report" unicode="bug_report" horiz-adv-x="341" 
d="M341 277v-42h-44q2 -13 2 -22v-21h42v-43h-42v-21q0 -9 -2 -21h44v-43h-60q-17 -29 -46 -46.5t-64 -17.5t-64.5 17.5t-46.5 46.5h-60v43h45q-2 12 -2 21v21h-43v43h43v21q0 9 2 22h-45v42h60q15 26 39 42l-35 35l30 30l47 -46q14 3 29.5 3t30.5 -3l46 46l30 -30l-34 -35
q24 -16 38 -42h60zM213 107v42h-85v-42h85zM213 192v43h-85v-43h85z" />
    <glyph glyph-name="build" unicode="build" horiz-adv-x="470" 
d="M464 43q6 -5 6 -14.5t-8 -15.5l-49 -49q-7 -7 -15.5 -7t-14.5 7l-194 194q-37 -15 -77.5 -6.5t-70.5 38.5q-31 32 -39 75.5t12 82.5l94 -92l64 64l-92 92q38 18 82 10.5t76 -38.5q30 -30 38.5 -70.5t-6.5 -76.5z" />
    <glyph glyph-name="burst_mode" unicode="burst_mode" horiz-adv-x="469" 
d="M0 341h43v-298h-43v298zM85 341h43v-298h-43v298zM448 341q9 0 15 -6t6 -15v-256q0 -9 -6 -15t-15 -6h-256q-9 0 -15 6t-6 15v256q0 9 6 15t15 6h256zM213 85h214l-69 90l-53 -68l-38 46z" />
    <glyph glyph-name="business_center" unicode="business_center" 
d="M171 107h85v21h149v-85q0 -18 -12.5 -30.5t-29.5 -12.5h-299q-18 0 -30.5 12.5t-12.5 30.5l1 85h149v-21zM384 299q9 0 16.5 -3.5t13.5 -9.5t9.5 -13.5t3.5 -16.5v-64q0 -12 -6 -21.5t-15.5 -15.5t-21.5 -6h-128v43h-85v-43h-128q-18 0 -30.5 12.5t-12.5 30.5v64
q0 18 12.5 30.5t30.5 12.5h85v42l42 43h86l42 -43v-42h86zM256 299v42h-85v-42h85z" />
    <glyph glyph-name="business" unicode="business" 
d="M213 299h214v-299h-427v384h213v-85zM85 43v42h-42v-42h42zM85 128v43h-42v-43h42zM85 213v43h-42v-43h42zM85 299v42h-42v-42h42zM171 43v42h-43v-42h43zM171 128v43h-43v-43h43zM171 213v43h-43v-43h43zM171 299v42h-43v-42h43zM384 43v213h-171v-43h43v-42h-43v-43h43
v-43h-43v-42h171zM341 213v-42h-42v42h42zM341 128v-43h-42v43h42z" />
    <glyph glyph-name="cached" unicode="cached" horiz-adv-x="469" 
d="M384 277l85 -85h-64q0 -71 -50 -121t-120 -50q-49 0 -91 27l31 31q27 -15 60 -15q53 0 90.5 37.5t37.5 90.5h-64zM107 192h64l-86 -85l-85 85h64q0 71 50 121t121 50q49 0 91 -27l-32 -31q-27 15 -59 15q-53 0 -90.5 -37.5t-37.5 -90.5z" />
    <glyph glyph-name="cake" unicode="cake" horiz-adv-x="384" 
d="M192 320q-18 0 -30.5 12.5t-12.5 30.5q0 12 7 22l36 63l36 -63q7 -10 7 -22q0 -18 -12.5 -30.5t-30.5 -12.5zM290 107q22 -22 52 -22q23 0 42 13v-98q0 -9 -6.5 -15t-14.5 -6h-342q-8 0 -14.5 6t-6.5 15v98q19 -13 42 -13q30 0 52 22l23 23l23 -23q21 -21 52 -21t52 21
l23 23zM320 256q27 0 45.5 -18.5t18.5 -45.5v-33q0 -17 -12.5 -29.5t-29.5 -12.5t-29 12l-46 46l-46 -46q-11 -11 -29 -11t-30 11l-45 46l-46 -46q-12 -12 -29 -12t-29.5 12.5t-12.5 29.5v33q0 27 18.5 45.5t45.5 18.5h107v43h42v-43h107z" />
    <glyph glyph-name="call_end" unicode="call_end" horiz-adv-x="512" 
d="M256 256q-51 0 -98 -15v-66q0 -14 -12 -20q-31 -15 -57 -39q-6 -6 -15 -6t-15 6l-53 53q-6 6 -6 15t6 15q105 100 250 100t250 -100q6 -6 6 -15t-6 -15l-53 -53q-6 -6 -15 -6t-15 6q-25 23 -57 39q-12 6 -12 19v66q-47 16 -98 16z" />
    <glyph glyph-name="call_made" unicode="call_made" horiz-adv-x="320" 
d="M107 341h213v-213h-43v141l-247 -248l-30 30l247 248h-140v42z" />
    <glyph glyph-name="call_merge" unicode="call_merge" horiz-adv-x="273" 
d="M243 13l-72 72l30 30l72 -72zM41 277l96 96l96 -96h-75v-136l-128 -128l-30 30l115 115v119h-74z" />
    <glyph glyph-name="call_missed_outgoing" unicode="call_missed_outgoing" horiz-adv-x="384" 
d="M0 269l30 30l162 -162l119 119h-98v43h171v-171h-43v98l-149 -149z" />
    <glyph glyph-name="call_missed" unicode="call_missed" horiz-adv-x="384" 
d="M354 299l30 -30l-192 -192l-149 149v-98h-43v171h171v-43h-98l119 -119z" />
    <glyph glyph-name="call_received" unicode="call_received" horiz-adv-x="320" 
d="M320 333l-247 -248h140v-42h-213v213h43v-141l247 248z" />
    <glyph glyph-name="call_split" unicode="call_split" horiz-adv-x="341" 
d="M213 363h128v-128l-49 49l-61 -62l-30 30l61 62zM128 363l-49 -49l113 -113v-180h-43v162l-100 101l-49 -49v128h128z" />
    <glyph glyph-name="call_to_action" unicode="call_to_action" horiz-adv-x="469" 
d="M427 384q17 0 29.5 -12.5t12.5 -30.5v-298q0 -18 -12.5 -30.5t-29.5 -12.5h-384q-18 0 -30.5 12.5t-12.5 30.5v298q0 18 12.5 30.5t30.5 12.5h384zM427 43v64h-384v-64h384z" />
    <glyph glyph-name="call" unicode="call" horiz-adv-x="384" 
d="M77 218q47 -93 141 -141l47 47q9 10 22 5q36 -12 76 -12q8 0 14.5 -6t6.5 -15v-75q0 -8 -6.5 -14.5t-14.5 -6.5q-99 0 -182.5 48.5t-132 132t-48.5 182.5q0 8 6.5 14.5t14.5 6.5h75q9 0 15 -6.5t6 -14.5q0 -40 12 -76q4 -13 -5 -22z" />
    <glyph glyph-name="camera_alt" unicode="camera_alt" 
d="M145 192q0 28 20 48t48.5 20t48.5 -20t20 -48t-20 -48t-48.5 -20t-48.5 20t-20 48zM149 405h128l39 -42h68q9 0 16.5 -3.5t13.5 -9.5t9.5 -13.5t3.5 -16.5v-256q0 -18 -12.5 -30.5t-30.5 -12.5h-341q-18 0 -30.5 12.5t-12.5 30.5v256q0 18 12.5 30.5t30.5 12.5h67z
M213 85q44 0 75.5 31.5t31.5 75.5t-31.5 75.5t-75.5 31.5t-75 -31.5t-31 -75.5t31 -75.5t75 -31.5z" />
    <glyph glyph-name="camera_enhance" unicode="camera_enhance" 
d="M149 384h128l39 -43h68q18 0 30.5 -12.5t12.5 -29.5v-256q0 -18 -12.5 -30.5t-30.5 -12.5h-341q-18 0 -30.5 12.5t-12.5 30.5v256q0 17 12.5 29.5t30.5 12.5h67zM213 64q44 0 75.5 31.5t31.5 75.5t-31.5 75t-75.5 31t-75 -31t-31 -75t31 -75.5t75 -31.5zM213 85l-26 59
l-59 27l59 26l26 59l27 -59l59 -26l-59 -27z" />
    <glyph glyph-name="camera_front" unicode="camera_front" horiz-adv-x="299" 
d="M107 21v43l64 -64l-64 -64v43h-107v42h107zM192 21h107v-42h-107v42zM149 277q-11 0 -21 6t-15.5 15.5t-5.5 21.5q0 18 12.5 30.5t30 12.5t30 -12.5t12.5 -30.5t-12.5 -30.5t-30.5 -12.5zM256 448q9 0 16.5 -3.5t13.5 -9t9.5 -13.5t3.5 -17v-298q0 -18 -12.5 -30.5
t-30.5 -12.5h-213q-18 0 -30.5 12.5t-12.5 30.5v298q0 18 12.5 30.5t30.5 12.5h213zM43 405v-224q0 24 36.5 39t69.5 15q20 0 44 -5.5t43.5 -18.5t19.5 -30v224h-213z" />
    <glyph glyph-name="camera_rear" unicode="camera_rear" horiz-adv-x="299" 
d="M107 21v43l64 -64l-64 -64v43h-107v42h107zM192 21h107v-42h-107v42zM256 448q9 0 16.5 -3.5t13.5 -9t9.5 -13.5t3.5 -17v-298q0 -18 -12.5 -30.5t-30.5 -12.5h-213q-18 0 -30.5 12.5t-12.5 30.5v298q0 18 12.5 30.5t30.5 12.5h213zM149.5 320q17.5 0 30 12.5t12.5 30
t-12.5 30t-30.5 12.5q-11 0 -21 -5.5t-15.5 -15.5t-5.5 -21q0 -18 12.5 -30.5t30 -12.5z" />
    <glyph glyph-name="camera_roll" unicode="camera_roll" 
d="M256 341h171v-320h-171q0 -17 -12.5 -29.5t-30.5 -12.5h-170q-18 0 -30.5 12.5t-12.5 29.5v320q0 18 12.5 30.5t30.5 12.5h21v21q0 9 6.5 15.5t14.5 6.5h86q8 0 14.5 -6.5t6.5 -15.5v-21h21q18 0 30.5 -12.5t12.5 -30.5zM213 64v43h-42v-43h42zM213 256v43h-42v-43h42z
M299 64v43h-43v-43h43zM299 256v43h-43v-43h43zM384 64v43h-43v-43h43zM384 256v43h-43v-43h43z" />
    <glyph glyph-name="camera" unicode="camera" 
d="M158 224l-1 -2l-78 135q58 48 134 48q23 0 47 -5zM417 256h-206l78 135q46 -17 79.5 -52.5t48.5 -82.5zM422 235q5 -22 5 -43q0 -83 -57 -144l-101 176l-6 11h159zM140 192l24 -43h-160q-4 22 -4 43q0 82 56 144zM10 128h206l-78 -135q-46 17 -79.5 52.5t-48.5 82.5z
M250 128l20 34l78 -135q-59 -48 -135 -48q-22 0 -46 5z" />
    <glyph glyph-name="cancel" unicode="cancel" 
d="M213.5 405q88.5 0 151 -62.5t62.5 -150.5t-62.5 -150.5t-151 -62.5t-151 62.5t-62.5 150.5t62.5 150.5t151 62.5zM320 115l-77 77l77 77l-30 30l-77 -77l-76 77l-30 -30l76 -77l-76 -77l30 -30l76 77l77 -77z" />
    <glyph glyph-name="card_giftcard" unicode="card_giftcard" 
d="M384 320q18 0 30.5 -12.5t12.5 -30.5v-234q0 -18 -12.5 -30.5t-30.5 -12.5h-341q-18 0 -30.5 12.5t-12.5 30.5v234q0 18 12.5 30.5t30.5 12.5h46q-4 11 -4 21q0 27 19 45.5t45 18.5q34 0 54 -28l10 -15l11 15q19 28 53 28q27 0 45.5 -18.5t18.5 -45.5q0 -10 -4 -21h47z
M277 363q-8 0 -14.5 -6.5t-6.5 -15t6.5 -15t15 -6.5t15 6.5t6.5 14.5q0 6 -3 11t-8 8t-11 3zM149.5 363q-8.5 0 -15 -6.5t-6.5 -15t6.5 -15t15 -6.5t15 6.5t6.5 15t-6.5 15t-15 6.5zM384 43v42h-341v-42h341zM384 149v128h-108l44 -60l-35 -25l-50 69l-22 29l-21 -29
l-51 -69l-34 25l44 60h-108v-128h341z" />
    <glyph glyph-name="card_membership" unicode="card_membership" 
d="M384 405q18 0 30.5 -12.5t12.5 -29.5v-235q0 -18 -12.5 -30.5t-30.5 -12.5h-85v-106l-86 42l-85 -42v106h-85q-18 0 -30.5 12.5t-12.5 30.5v235q0 17 12.5 29.5t30.5 12.5h341zM384 128v43h-341v-43h341zM384 235v128h-341v-128h341z" />
    <glyph glyph-name="card_travel" unicode="card_travel" 
d="M384 320q18 0 30.5 -12.5t12.5 -30.5v-234q0 -18 -12.5 -30.5t-30.5 -12.5h-341q-18 0 -30.5 12.5t-12.5 30.5v234q0 18 12.5 30.5t30.5 12.5h64v43q0 11 5.5 21t15.5 15.5t21 5.5h128q18 0 30.5 -12.5t12.5 -29.5v-43h64zM149 363v-43h128v43h-128zM384 43v42h-341v-42
h341zM384 149v128h-64v-42h-43v42h-128v-42h-42v42h-64v-128h341z" />
    <glyph glyph-name="casino" unicode="casino" horiz-adv-x="384" 
d="M341 384q18 0 30.5 -12.5t12.5 -30.5v-298q0 -18 -12.5 -30.5t-30.5 -12.5h-298q-18 0 -30.5 12.5t-12.5 30.5v298q0 18 12.5 30.5t30.5 12.5h298zM96 64q13 0 22.5 9.5t9.5 22.5t-9.5 22.5t-22.5 9.5t-22.5 -9.5t-9.5 -22.5t9.5 -22.5t22.5 -9.5zM96 256q13 0 22.5 9.5
t9.5 22.5t-9.5 22.5t-22.5 9.5t-22.5 -9.5t-9.5 -22.5t9.5 -22.5t22.5 -9.5zM192 160q13 0 22.5 9.5t9.5 22.5t-9.5 22.5t-22.5 9.5t-22.5 -9.5t-9.5 -22.5t9.5 -22.5t22.5 -9.5zM288 64q13 0 22.5 9.5t9.5 22.5t-9.5 22.5t-22.5 9.5t-22.5 -9.5t-9.5 -22.5t9.5 -22.5
t22.5 -9.5zM288 256q13 0 22.5 9.5t9.5 22.5t-9.5 22.5t-22.5 9.5t-22.5 -9.5t-9.5 -22.5t9.5 -22.5t22.5 -9.5z" />
    <glyph glyph-name="cast_connected" unicode="cast_connected" horiz-adv-x="469" 
d="M0 64q27 0 45.5 -18.5t18.5 -45.5h-64v64zM0 149q62 0 105.5 -43.5t43.5 -105.5h-42q0 44 -31.5 75.5t-75.5 31.5v42zM384 299v-214h-120q-21 64 -68 111t-111 68v35h299zM0 235q97 0 166 -69t69 -166h-43q0 80 -56 136t-136 56v43zM427 384q17 0 29.5 -12.5t12.5 -30.5
v-298q0 -18 -12.5 -30.5t-29.5 -12.5h-150v43h150v298h-384v-64h-43v64q0 18 12.5 30.5t30.5 12.5h384z" />
    <glyph glyph-name="cast" unicode="cast" horiz-adv-x="469" 
d="M427 384q17 0 29.5 -12.5t12.5 -30.5v-298q0 -18 -12.5 -30.5t-29.5 -12.5h-150v43h150v298h-384v-64h-43v64q0 18 12.5 30.5t30.5 12.5h384zM0 64q27 0 45.5 -18.5t18.5 -45.5h-64v64zM0 149q62 0 105.5 -43.5t43.5 -105.5h-42q0 44 -31.5 75.5t-75.5 31.5v42zM0 235
q97 0 166 -69t69 -166h-43q0 80 -56 136t-136 56v43z" />
    <glyph glyph-name="center_focus_strong" unicode="center_focus_strong" horiz-adv-x="384" 
d="M192 277q35 0 60 -25t25 -60t-25 -60t-60 -25t-60 25t-25 60t25 60t60 25zM43 128v-85h85v-43h-85q-18 0 -30.5 12.5t-12.5 30.5v85h43zM43 341v-85h-43v85q0 18 12.5 30.5t30.5 12.5h85v-43h-85zM341 384q18 0 30.5 -12.5t12.5 -30.5v-85h-43v85h-85v43h85zM341 43v85
h43v-85q0 -18 -12.5 -30.5t-30.5 -12.5h-85v43h85z" />
    <glyph glyph-name="center_focus_weak" unicode="center_focus_weak" horiz-adv-x="384" 
d="M43 128v-85h85v-43h-85q-18 0 -30.5 12.5t-12.5 30.5v85h43zM43 341v-85h-43v85q0 18 12.5 30.5t30.5 12.5h85v-43h-85zM341 384q18 0 30.5 -12.5t12.5 -30.5v-85h-43v85h-85v43h85zM341 43v85h43v-85q0 -18 -12.5 -30.5t-30.5 -12.5h-85v43h85zM192 277q35 0 60 -25
t25 -60t-25 -60t-60 -25t-60 25t-25 60t25 60t60 25zM192 149q18 0 30.5 12.5t12.5 30.5t-12.5 30.5t-30.5 12.5t-30.5 -12.5t-12.5 -30.5t12.5 -30.5t30.5 -12.5z" />
    <glyph glyph-name="change_history" unicode="change_history" 
d="M213 282l-136 -218h273zM213 363l214 -342h-427z" />
    <glyph glyph-name="chat_bubble_outline" unicode="chat_bubble_outline" 
d="M384 405q18 0 30.5 -12.5t12.5 -29.5v-256q0 -18 -12.5 -30.5t-30.5 -12.5h-299l-85 -85v384q0 17 12.5 29.5t30.5 12.5h341zM384 107v256h-341v-299l42 43h299z" />
    <glyph glyph-name="chat_bubble" unicode="chat_bubble" 
d="M384 405q18 0 30.5 -12.5t12.5 -29.5v-256q0 -18 -12.5 -30.5t-30.5 -12.5h-299l-85 -85v384q0 17 12.5 29.5t30.5 12.5h341z" />
    <glyph glyph-name="chat" unicode="chat" 
d="M384 405q18 0 30.5 -12.5t12.5 -29.5v-256q0 -18 -12.5 -30.5t-30.5 -12.5h-299l-85 -85v384q0 17 12.5 29.5t30.5 12.5h341zM85 256v-43h256v43h-256zM256 149v43h-171v-43h171zM341 277v43h-256v-43h256z" />
    <glyph glyph-name="check_box_outline_blank" unicode="check_box_outline_blank" horiz-adv-x="384" 
d="M341 341h-298v-298h298v298zM341 384q18 0 30.5 -12.5t12.5 -30.5v-298q0 -18 -12.5 -30.5t-30.5 -12.5h-298q-18 0 -30.5 12.5t-12.5 30.5v298q0 18 12.5 30.5t30.5 12.5h298z" />
    <glyph glyph-name="check_box" unicode="check_box" horiz-adv-x="384" 
d="M341 384q18 0 30.5 -12.5t12.5 -30.5v-298q0 -12 -5.5 -22t-15.5 -15.5t-22 -5.5h-298q-18 0 -30.5 12.5t-12.5 30.5v298q0 18 12.5 30.5t30.5 12.5h298zM149 85l192 192l-30 31l-162 -162l-76 76l-30 -30z" />
    <glyph glyph-name="check_circle" unicode="check_circle" 
d="M213.5 405q88.5 0 151 -62.5t62.5 -150.5t-62.5 -150.5t-151 -62.5t-151 62.5t-62.5 150.5t62.5 150.5t151 62.5zM171 85l192 192l-30 31l-162 -162l-77 76l-30 -30z" />
    <glyph glyph-name="check" unicode="check" horiz-adv-x="375" 
d="M119 103l226 226l30 -30l-256 -256l-119 119l30 30z" />
    <glyph glyph-name="chevron_left" unicode="chevron_left" horiz-adv-x="158" 
d="M158 290l-98 -98l98 -98l-30 -30l-128 128l128 128z" />
    <glyph glyph-name="chevron_right" unicode="chevron_right" horiz-adv-x="158" 
d="M30 320l128 -128l-128 -128l-30 30l98 98l-98 98z" />
    <glyph glyph-name="child_care" unicode="child_care" horiz-adv-x="469" 
d="M261 224q0 11 8 19t19 8t19 -8t8 -19t-8 -19t-19 -8q-7 0 -13.5 3.5t-10 10t-3.5 13.5zM155 224q0 11 7.5 19t18.5 8t19 -8t8 -19t-8 -19t-19 -8t-18.5 8t-7.5 19zM468 178q-4 -24 -20 -42.5t-40 -25.5q-16 -35 -46 -61q-54 -49 -127 -49t-127 49q-30 26 -47 61
q-23 7 -39.5 25.5t-20.5 42.5q-1 7 -1 14t1 14q4 24 20.5 42.5t39.5 25.5q17 35 47 62q54 48 126.5 48t126.5 -48q30 -27 47 -62q12 -4 22 -10.5t17.5 -15t13 -19.5t7.5 -23q1 -7 1 -14t-1 -14zM384 149q18 0 30.5 12.5t12.5 30.5t-12.5 30.5t-30.5 12.5q-1 0 -4 -1h-2
q-6 21 -19 40q-20 31 -53 49t-71.5 18t-71.5 -18t-53 -49q-12 -19 -18 -40h-3l-4 1q-17 0 -29.5 -12.5t-12.5 -30.5t12.5 -30.5t29.5 -12.5q2 0 4 1h3q6 -21 18 -40q20 -31 53 -49t71.5 -18t71.5 18t53 49q13 19 19 40h2zM139 149h192q-13 -28 -39 -46t-57.5 -18t-57.5 18
t-38 46z" />
    <glyph glyph-name="child_friendly" unicode="child_friendly" horiz-adv-x="405" 
d="M235 405q46 0 85.5 -22.5t62 -62t22.5 -85.5h-170v170zM369 109q26 -22 26 -56q0 -31 -22 -52.5t-53 -21.5q-28 0 -49 18t-25 46h-44q-4 -28 -25 -46t-49 -18q-31 0 -53 21.5t-22 52.5q0 21 11 38.5t29 27.5l-46 94h-47v43h74l21 -43h310q0 -58 -36 -104zM128 21
q13 0 22.5 9.5t9.5 23t-9.5 22.5t-22.5 9t-22.5 -9t-9.5 -23q0 -8 4.5 -15.5t11.5 -12t16 -4.5zM320 21q13 0 22.5 9.5t9.5 23t-9.5 22.5t-22.5 9t-22.5 -9t-9.5 -23q0 -8 4.5 -15.5t11.5 -12t16 -4.5z" />
    <glyph glyph-name="chrome_reader_mode" unicode="chrome_reader_mode" horiz-adv-x="469" 
d="M256 192h149v-32h-149v32zM256 245h149v-32h-149v32zM256 139h149v-32h-149v32zM427 363q17 0 29.5 -12.5t12.5 -30.5v-277q0 -18 -12.5 -30.5t-29.5 -12.5h-384q-18 0 -30.5 12.5t-12.5 30.5v277q0 18 12.5 30.5t30.5 12.5h384zM427 43v277h-192v-277h192z" />
    <glyph glyph-name="class" unicode="class" horiz-adv-x="341" 
d="M299 405q17 0 29.5 -12.5t12.5 -29.5v-342q0 -17 -12.5 -29.5t-29.5 -12.5h-256q-18 0 -30.5 12.5t-12.5 29.5v342q0 8 3.5 16t9 14t13.5 9t17 3h256zM43 363v-171l53 32l53 -32v171h-106z" />
    <glyph glyph-name="clear_all" unicode="clear_all" horiz-adv-x="384" 
d="M43 171v42h298v-42h-298zM0 85v43h299v-43h-299zM85 299h299v-43h-299v43z" />
    <glyph glyph-name="clear" unicode="clear" horiz-adv-x="299" 
d="M299 311l-120 -119l120 -119l-30 -30l-120 119l-119 -119l-30 30l119 119l-119 119l30 30l119 -119l120 119z" />
    <glyph glyph-name="close" unicode="close" horiz-adv-x="299" 
d="M299 311l-120 -119l120 -119l-30 -30l-120 119l-119 -119l-30 30l119 119l-119 119l30 30l119 -119l120 119z" />
    <glyph glyph-name="closed_caption" unicode="closed_caption" horiz-adv-x="384" 
d="M341 363q18 0 30.5 -12.5t12.5 -30.5v-256q0 -18 -12.5 -30.5t-30.5 -12.5h-298q-18 0 -30.5 12.5t-12.5 30.5v256q0 18 12.5 30.5t30.5 12.5h298zM171 213v22q0 8 -6.5 14.5t-15.5 6.5h-64q-8 0 -14.5 -6.5t-6.5 -14.5v-86q0 -8 6.5 -14.5t14.5 -6.5h64q6 0 11 3t8 8
t3 10v22h-32v-11h-43v64h43v-11h32zM320 213v22q0 8 -6.5 14.5t-14.5 6.5h-64q-6 0 -11 -3t-8 -8t-3 -10v-86q0 -8 6.5 -14.5t15.5 -6.5h64q8 0 14.5 6.5t6.5 14.5v22h-32v-11h-43v64h43v-11h32z" />
    <glyph glyph-name="cloud_circle" unicode="cloud_circle" 
d="M213.5 405q88.5 0 151 -62.5t62.5 -150.5t-62.5 -150.5t-151 -62.5t-151 62.5t-62.5 150.5t62.5 150.5t151 62.5zM309 107q22 0 38 15.5t16 37.5t-16 37.5t-38 15.5h-10q0 36 -25 61t-61 25q-29 0 -52 -18.5t-30 -46.5l-3 1q-27 0 -45.5 -19t-18.5 -45.5t18.5 -45
t45.5 -18.5h181z" />
    <glyph glyph-name="cloud_done" unicode="cloud_done" horiz-adv-x="512" 
d="M413 234q42 -3 70.5 -33.5t28.5 -72.5q0 -44 -31.5 -75.5t-75.5 -31.5h-277q-53 0 -90.5 37.5t-37.5 90.5q0 50 33 86t81 41q20 40 58 63.5t84 23.5q38 0 71.5 -17t56 -46.5t29.5 -65.5zM213 85l141 141l-30 30l-111 -110l-44 44l-30 -30z" />
    <glyph glyph-name="cloud_download" unicode="cloud_download" horiz-adv-x="512" 
d="M413 234q42 -3 70.5 -33.5t28.5 -72.5q0 -44 -31.5 -75.5t-75.5 -31.5h-277q-53 0 -90.5 37.5t-37.5 90.5q0 50 33 86t81 41q20 40 58 63.5t84 23.5q38 0 71.5 -17t56 -46.5t29.5 -65.5zM363 171h-64v85h-86v-85h-64l107 -107z" />
    <glyph glyph-name="cloud_off" unicode="cloud_off" horiz-adv-x="512" 
d="M413 234q42 -3 70.5 -33.5t28.5 -72.5q0 -55 -45 -87l-31 31q33 19 33 56q0 17 -8.5 32t-23 23.5t-32.5 8.5h-32v11q0 48 -34 82.5t-83 34.5q-29 0 -54 -13l-32 31q40 25 86 25q38 0 71.5 -17t56 -46.5t29.5 -65.5zM64 336l27 27l357 -357l-27 -27l-43 42h-250
q-53 0 -90.5 37.5t-37.5 90.5q0 52 35.5 89t87.5 39zM165 235h-37q-35 0 -60 -25t-25 -60.5t25 -60.5t60 -25h208z" />
    <glyph glyph-name="cloud_queue" unicode="cloud_queue" horiz-adv-x="512" 
d="M413 234q42 -3 70.5 -33.5t28.5 -72.5q0 -44 -31.5 -75.5t-75.5 -31.5h-277q-53 0 -90.5 37.5t-37.5 90.5q0 50 33 86t81 41q20 40 58 63.5t84 23.5q38 0 71.5 -17t56 -46.5t29.5 -65.5zM405 64q27 0 45.5 18.5t18.5 45.5q0 17 -8.5 32t-23 23.5t-32.5 8.5h-32v11
q0 48 -34 82.5t-83 34.5q-40 0 -71 -24t-42 -61h-15q-35 0 -60 -25t-25 -60.5t25 -60.5t60 -25h277z" />
    <glyph glyph-name="cloud_upload" unicode="cloud_upload" horiz-adv-x="512" 
d="M413 234q42 -3 70.5 -33.5t28.5 -72.5q0 -44 -31.5 -75.5t-75.5 -31.5h-277q-53 0 -90.5 37.5t-37.5 90.5q0 50 33 86t81 41q20 40 58 63.5t84 23.5q38 0 71.5 -17t56 -46.5t29.5 -65.5zM299 171h64l-107 106l-107 -106h64v-86h86v86z" />
    <glyph glyph-name="cloud" unicode="cloud" horiz-adv-x="512" 
d="M413 234q42 -3 70.5 -33.5t28.5 -72.5q0 -44 -31.5 -75.5t-75.5 -31.5h-277q-53 0 -90.5 37.5t-37.5 90.5q0 50 33 86t81 41q20 40 58 63.5t84 23.5q38 0 71.5 -17t56 -46.5t29.5 -65.5z" />
    <glyph glyph-name="code" unicode="code" 
d="M158 94l-30 -30l-128 128l128 128l30 -30l-98 -98zM269 94l98 98l-98 98l30 30l128 -128l-128 -128z" />
    <glyph glyph-name="collections_bookmark" unicode="collections_bookmark" 
d="M43 320v-299h298v-42h-298q-18 0 -30.5 12.5t-12.5 29.5v299h43zM384 405q18 0 30.5 -12.5t12.5 -29.5v-256q0 -18 -12.5 -30.5t-30.5 -12.5h-256q-18 0 -30.5 12.5t-12.5 30.5v256q0 8 3.5 16t9.5 14t13.5 9t16.5 3h256zM384 192v171h-107v-171l54 32z" />
    <glyph glyph-name="collections" unicode="collections" 
d="M427 107q0 -18 -12.5 -30.5t-30.5 -12.5h-256q-18 0 -30.5 12.5t-12.5 30.5v256q0 8 3.5 16t9.5 14t13.5 9t16.5 3h256q18 0 30.5 -12.5t12.5 -29.5v-256zM192 192l-64 -85h256l-85 106l-64 -79zM0 320h43v-299h298v-42h-298q-18 0 -30.5 12.5t-12.5 29.5v299z" />
    <glyph glyph-name="color_lens" unicode="color_lens" horiz-adv-x="384" 
d="M192 384q80 0 136 -50t56 -121q0 -44 -31.5 -75t-75.5 -31h-37q-14 0 -23 -9.5t-9 -22.5q0 -12 8 -21q8 -10 8 -22q0 -13 -9.5 -22.5t-22.5 -9.5q-80 0 -136 56t-56 136t56 136t136 56zM74.5 192q13.5 0 23 9.5t9.5 22.5t-9.5 22.5t-23 9.5t-22.5 -9.5t-9 -22.5t9 -22.5
t22.5 -9.5zM138.5 277q13.5 0 23 9.5t9.5 23t-9.5 22.5t-23 9t-22.5 -9t-9 -22.5t9 -23t22.5 -9.5zM245.5 277q13.5 0 22.5 9.5t9 23t-9 22.5t-22.5 9t-23 -9t-9.5 -22.5t9.5 -23t23 -9.5zM309.5 192q13.5 0 22.5 9.5t9 22.5t-9 22.5t-22.5 9.5t-23 -9.5t-9.5 -22.5
t9.5 -22.5t23 -9.5z" />
    <glyph glyph-name="colorize" unicode="colorize" horiz-adv-x="384" 
d="M378 328q6 -6 6 -15t-6 -15l-67 -67l41 -41l-30 -30l-30 30l-191 -190h-101v101l190 191l-30 30l30 30l41 -41l67 67q6 6 15 6t15 -6zM84 43l172 172l-41 41l-172 -172z" />
    <glyph glyph-name="comment" unicode="comment" 
d="M426 363l1 -384l-86 85h-298q-18 0 -30.5 12.5t-12.5 30.5v256q0 17 12.5 29.5t30.5 12.5h341q18 0 30 -12.5t12 -29.5zM341 149v43h-256v-43h256zM341 213v43h-256v-43h256zM341 277v43h-256v-43h256z" />
    </font>
</defs>
</svg>
